<svg xmlns="http://www.w3.org/2000/svg" viewBox="0 0 599.2 79.65"><defs><style>.cls-1{fill:#231815;}</style></defs><g id="レイヤー_2" data-name="レイヤー 2"><g id="ロゴ"><path class="cls-1" d="M147.16,46c0-.11,0-.38,0-.38l0-.2a.81.81,0,0,0,0-.41c0-.23-.84-.71-1.15-1a3.23,3.23,0,0,1-.44-.55l-.2-.1a2.19,2.19,0,0,0-.34-.06,1.33,1.33,0,0,1-.34-.11l-.24-.13-.17-.27-.74-.34c-1.12-.85-4.2-3.08-6-4.58a29.42,29.42,0,0,1-3.32-3.15c-.64-.71-4.37-3.72-5.42-4.71s-4.44-3.72-5.56-4.81a11.39,11.39,0,0,1-2.2-2.78c-.27-.57-.2-1.55-.41-1.93a8.51,8.51,0,0,0-.84-1.25A6.59,6.59,0,0,0,118.36,18c-.37-.24-.88-.31-1.12-.65a1.49,1.49,0,0,0-1-.61,1.83,1.83,0,0,0-1.59.27,5.24,5.24,0,0,0-1,1.26,7,7,0,0,0-.07,1.73,2.51,2.51,0,0,0,.12.65c-.32.63-.91,1.79-1.1,2.23-.27.6-1.12,1.82-1.32,2.33s-1.12,1.9-1.56,2.61-2,2.95-2.68,4-1.8,2.71-2.34,3.63-2.81,3.86-3.89,5.56a42.27,42.27,0,0,1-4.07,5.35,13.42,13.42,0,0,1-2,1.79c-.55.38-.51,1.12-.24,1.29a2.61,2.61,0,0,0,1.36.44,12.32,12.32,0,0,0,2.06-.51c.14-.06.61-.5.92-.74a5,5,0,0,1,1-.64,2.22,2.22,0,0,0,.64-.24c.17-.14.51-.37.64-.51s.31-.41.41-.51,1.08-.85,1.22-1,.41-.48.41-.48a2.66,2.66,0,0,0,.61-.1,3.16,3.16,0,0,0,.88-.67c.13-.24.37-.51.44-.68s0-.27.1-.38a.63.63,0,0,0,.07-.37v-.37a7.65,7.65,0,0,1,.61-.71,5,5,0,0,0,.44-.51.22.22,0,0,1,.1-.24c.13-.07.88-.47,1-.51a1.08,1.08,0,0,0,.41-.23,4.37,4.37,0,0,1,.34-.31c.1-.1,0,.17.1-.1a1.75,1.75,0,0,1,.27-.47s.81-1.43.85-1.56a4.22,4.22,0,0,1,.13-.41l.1-.34.1-.34a1.49,1.49,0,0,0,.17-.4,1.62,1.62,0,0,1,.14-.51,5.36,5.36,0,0,1,.44-1c.2-.2.34-.41.47-.51s-.16.14.14-.1a2.19,2.19,0,0,0,.64-.71,3.56,3.56,0,0,0,.07-.44l.68-.58a1.48,1.48,0,0,0,.34-.34,2.8,2.8,0,0,0,.2-.37c0-.1.27-.58.27-.58a1.68,1.68,0,0,1,.41-.17,2.19,2.19,0,0,0,.34-.06l.3-.28s.54-.2.51-.3a1.23,1.23,0,0,1,0-.34s.15,0,.2-.09l0-.11c.1-.27.07-.48.2-.61a1.56,1.56,0,0,0,.31-.41,1.36,1.36,0,0,0,0-.51,2.86,2.86,0,0,0-.14-.44,2.81,2.81,0,0,1,.07-.71,1.35,1.35,0,0,1,.31-.24l.23-.27,0-.34.17-.3.2-.48a.23.23,0,0,1,.2,0,.5.5,0,0,0,.51-.07c.54.68,1.29,1.68,1.83,2.51.78,1.19.85,1.93,1.29,2.1a5.78,5.78,0,0,1,1.42,1.49c.14.21.61,1,.82,1.32a3.66,3.66,0,0,0,.67,1,5.12,5.12,0,0,1,.72.5,2.63,2.63,0,0,1,.33.51c0,.1.17.37.17.37l.24.21.24.51a1.47,1.47,0,0,1,.23.34,2.28,2.28,0,0,0,.17.3c.07.1-.17-.14.07.1a.89.89,0,0,0,.44.27s.14.31.24.48.07.27.2.4a1,1,0,0,0,.34.21,1.48,1.48,0,0,1,.37.47,4.56,4.56,0,0,0,.38.71,4,4,0,0,0,.61.78c.13.07.4.58.64.85s.48.78.75.95a5.07,5.07,0,0,1,.57.44l.21.27.3.17a4,4,0,0,1,.37.2c.1.07.38.17.48.24l.34.27.47.31s.37.2.47.27,1,.27,1.12.37.78.37,1.36.64a11.29,11.29,0,0,0,2.3.71c.48.07,2.48.17,3,.28s1.29.16,1.46.2a6.83,6.83,0,0,0,.68.07c.1,0,.24-.07.34,0a1.57,1.57,0,0,0,.61,0l.4-.13.31-.07a1.36,1.36,0,0,1,.27,0c.14,0,.74-.11.74-.11a1.54,1.54,0,0,0,.38-.06,1.35,1.35,0,0,1,.47-.07,2.4,2.4,0,0,0,.31,0l.2.17.14.21.44.1s.3.07.3,0S147.16,46.14,147.16,46Z"/><path class="cls-1" d="M114.9,30.19h0C114.92,30.13,114.91,30.17,114.9,30.19Z"/><path class="cls-1" d="M114.9,30.19h0S114.89,30.2,114.9,30.19Z"/><path class="cls-1" d="M114,42.34s1-.2,1.12-.2a5.6,5.6,0,0,0,.71,0,1.26,1.26,0,0,0,.38-.17,2.06,2.06,0,0,0,0-.27v-.1s.3-.48.54-.44a5.59,5.59,0,0,1,1.39.34,7.51,7.51,0,0,0,1.19.4,7.83,7.83,0,0,1,1.28.44,4.73,4.73,0,0,1,.82.51,2.42,2.42,0,0,0,.47.24,2.45,2.45,0,0,0,.71.17c.14,0,.38-.21.58-.44a5.15,5.15,0,0,0,.24-2.34,7.29,7.29,0,0,0-1.16-2.88,8.23,8.23,0,0,0-2-1.93,14,14,0,0,0-5.15-1.09c-.64,0-1.42-.1-1.76-.1a2.56,2.56,0,0,0-1.15.41c-.24.17-.71.51-.68,1s.07.78.41,1,.64.24.81.38.24.4.34.78a1.5,1.5,0,0,0,.34.61,2.58,2.58,0,0,0,.2.61,4.81,4.81,0,0,1,.48.81,1.12,1.12,0,0,1-.31,1,2,2,0,0,0-.61.88,2,2,0,0,0-.14.78,1.65,1.65,0,0,0,.51.23l.21-.27c.06-.1-.11.14.06-.1Z"/><path class="cls-1" d="M134.86,59.22a37.2,37.2,0,0,0-3.73-4,35.52,35.52,0,0,0-4-2.44,9.23,9.23,0,0,0-1.42-.67c-.27-.17-1,.11-.68.88a9.31,9.31,0,0,0,.44,1,2.06,2.06,0,0,1,.27,1,2.78,2.78,0,0,0,.17.7l-.31,0a4.45,4.45,0,0,1-1.66,0,3.29,3.29,0,0,0-.84-.2h-.21l0,.2-.2.24h-.38a3.52,3.52,0,0,0-.57-.21h-.1l-.31.21-.47.23a3.39,3.39,0,0,1-1.15.17,14.86,14.86,0,0,0-2.41,0c.17-.47,1-1.12,1.56-1.56s1.22-1.28,1.56-1.49a11.13,11.13,0,0,0,1.62-1.39c.34-.37.55-.57.65-.67l.1-.11.4-.44a6.07,6.07,0,0,0,1.39-.17,6,6,0,0,1,1-.33,2.24,2.24,0,0,1,.64,0c.14,0,.17-.44.14-.91a9.36,9.36,0,0,0-1-2.61,19.52,19.52,0,0,0-1.9-2.2c-.44-.48-.74-.75-1.49-.55a24,24,0,0,0-2.78,1,18.69,18.69,0,0,1-2.5.68c-.58.17-1.83.37-2.37.47s-1.36.28-1.73.34a12,12,0,0,1-2,.34,9.14,9.14,0,0,1-2-.17c-.37-.13-1.08-.23-1.18-.37s-.31.3-.31.61a10.12,10.12,0,0,0,.34,1.39c0,.13.51.85.75,1.25s.44.65.61.92a5.37,5.37,0,0,1,.37.54,1.23,1.23,0,0,0,.47.44c.14.07.51.2.51.2a1.34,1.34,0,0,1,.27.31l.21.37.37.17a1.36,1.36,0,0,1,.27,0c.13,0,.47,0,.47,0l.31-.27.13-.27.24,0s0-.11.44-.07.71,0,.88,0c-.1.22-.19.44-.23.54-.14.31-2,2.31-2.55,2.88a24.25,24.25,0,0,1-1.92,2.09l-.62,0c-.54,0-1.28.3-1.69.27s-1.76,0-1.76,0-.48-.17-.78-.3a1.37,1.37,0,0,0-1.09.2c-.27.17-.4.92-.37,1.76a14.72,14.72,0,0,0,.58,2.55,2.34,2.34,0,0,0,.84,1.05A6,6,0,0,1,105.45,64a3,3,0,0,0,.65.81,6.73,6.73,0,0,0,.88.41A1.48,1.48,0,0,0,108.2,65c.33-.27.64-.47.81-.64s.37-.41.37-.41a.92.92,0,0,0,0-.34l0-.1s0-.31.1-.41a.6.6,0,0,1,.34-.23c.2-.07,1.52-.61,1.86-.68a16.21,16.21,0,0,0,1.87-.31c.3-.13,1.35-.47,1.59-.57s1.66-.27,2-.41a9.53,9.53,0,0,0,.92-.44,4.69,4.69,0,0,0,.44-.17,5,5,0,0,1,.77-.3c.24-.07.45-.11.61-.17s.48-.07.58-.11,1.05-.33,1.22-.4.44-.07.54-.17l.1-.1,1.12-.51a2,2,0,0,1,.51-.14c.34-.07.44-.07.54-.1a3.57,3.57,0,0,1,.65-.1,1.08,1.08,0,0,0,.5-.07c.11-.07.21-.1.34-.17a1.2,1.2,0,0,1,.34-.17l.39,0a1.43,1.43,0,0,0,.49.66l.27.24a2.61,2.61,0,0,1,.21.81,1.33,1.33,0,0,0,.1.58.59.59,0,0,1,.13.2c0,.1.17.34.17.34l.14.48.24.13.17.31.23.4s.27.85.31,1.09a2.79,2.79,0,0,0,.24.64l.1.31.23.5a.21.21,0,0,1,.31.07,5.94,5.94,0,0,1,.51,1,4,4,0,0,0,.61.88c.13.2.44.31.61.44a4.83,4.83,0,0,0,.74.41,3.13,3.13,0,0,0,1,.07.86.86,0,0,0,.58-.21c.13-.07.33-.3.44-.3s.16-.17.33-.17a1.51,1.51,0,0,0,.78-.31,1.35,1.35,0,0,0,.34-.61c0-.17,0,.07,0-.17a2.7,2.7,0,0,1,.2-.54,6.37,6.37,0,0,0,.07-2.27A14.33,14.33,0,0,0,134.86,59.22Z"/><path class="cls-1" d="M156.65,23.33c.35.21,1.18.47,1.35.78a8.66,8.66,0,0,1,.41.88,4.49,4.49,0,0,1,.34,1.19,4.44,4.44,0,0,1-.58,1.11c-.1.14-.75.72-.95,1a2.7,2.7,0,0,0-.47.88.52.52,0,0,0,.13.47h.41a2.89,2.89,0,0,0,.57-.13.48.48,0,0,0,.17-.24l.07-.17.24-.17a.3.3,0,0,1,.2-.24c.17,0,.48-.2.61-.23a1.89,1.89,0,0,0,.54-.21c.14-.1.38-.23.38-.23l.34-.17a3.47,3.47,0,0,0,.3-.27l.34-.31s.44,0,.71,0a5.16,5.16,0,0,1,1,.06,7.83,7.83,0,0,0,.88.11c.28,0,.68.06.82.06a3,3,0,0,1,.61,0c.1,0,.17,0,.37,0a4,4,0,0,0,.68,0c.24,0,.61,0,.61,0a1.67,1.67,0,0,0,1.32-2.4,5.79,5.79,0,0,0-2.64-3,10.77,10.77,0,0,0-2.48-1.12,11.09,11.09,0,0,0-2.27-.24,6.63,6.63,0,0,0-1.56.17,2.52,2.52,0,0,1-.94.17,4.84,4.84,0,0,0-1.12.07C156.75,21.13,155.29,22.55,156.65,23.33Z"/><path class="cls-1" d="M170.2,52.43c.13-.13.57-.61.71-.74s.13-.34.44-.54.64-.48.58-.78a16,16,0,0,0-.41-1.87,2.11,2.11,0,0,0-1.09-1.11,7.56,7.56,0,0,0-1.32-.44,7.62,7.62,0,0,1-1.35-.58,6.36,6.36,0,0,0-1.8-.51,11.56,11.56,0,0,1-1.35-.13,4.66,4.66,0,0,1-.61-.17,1.42,1.42,0,0,0-.48-.14,3.29,3.29,0,0,1-.54-.13l-.22,0c-.1-.36-.22-.73-.32-1,.47-1.08,1.26-2.77,1.42-3A18.62,18.62,0,0,1,165,39.63a5.74,5.74,0,0,0,.47-.55,1.42,1.42,0,0,0,.21-.54c0-.17.07-.27.1-.44s.07-.84.07-.84l.61-.14c.17,0,.37-.2.51-.2a1.32,1.32,0,0,1,.4.06c.27.07.48.14.61.07a3.07,3.07,0,0,0,.61-.71,2.78,2.78,0,0,0,0-1.49,5.17,5.17,0,0,0-1.16-1.8,21.12,21.12,0,0,0-3.15-1.76c-.57-.37-2.61-.64-3.32-.07s-2.57,2-3.22,2.51a25.39,25.39,0,0,0-2.61,1.83,23.14,23.14,0,0,1-2.1,2c-.3.2-.88.4-1.22.64l-.81.58-.24.3a4.33,4.33,0,0,1-.5.1l-.55,0a1.42,1.42,0,0,0-.57.07,1.6,1.6,0,0,0-.31.37,3.16,3.16,0,0,0-.13.68l.06.37.28.14s0,0,.2.06.37,0,.47,0-.23,0,.1,0a.78.78,0,0,1,.61.34,1.06,1.06,0,0,0,.31.24.76.76,0,0,0,.24.2c.1,0-.34,0,.1,0a5.67,5.67,0,0,0,.71.11l.61,0a1.83,1.83,0,0,0,.2.54c.1.1.17.14.68.17s1.05,0,1.22,0a1.24,1.24,0,0,1,.51.2l.34.21h.3l.21-.31.37-.23.24-.17.17-.21.44-.44a1.24,1.24,0,0,1,.16-.47c.14-.21-.23.07.14-.21l.37-.27a1.64,1.64,0,0,1,.38-.4l.37-.21.24-.4s.23-.24.44-.21a3.91,3.91,0,0,0,.57,0,5.27,5.27,0,0,1-.3,1.32c-.24.54-1.09,2-1.36,2.44a14.44,14.44,0,0,0-.61,1.56,10.11,10.11,0,0,0-.88,1.52c-.13.48-.27,1.12-.27,1.12a5.17,5.17,0,0,0-.91,1.42c-.17.58-.34,1-.34,1s-.85,1.22-1,1.56-.61,1.63-.88,2-1.12,1.43-1.39,1.8-.54.81-.54.81-.24.41-.34.55l-.64.81s-.82,1-1.06,1.29-.54.54-.67.67a1.81,1.81,0,0,0-.48.65c0,.2.24.4.24.4s.37,0,.54,0a1.75,1.75,0,0,0,.44,0c.21,0,0,0,.21,0s.27-.07.4,0a1.56,1.56,0,0,1,.41.2c.1.11.34.31.34.31l.27-.14a1.46,1.46,0,0,0,.17-.3,2.94,2.94,0,0,0,.13-.51,4.1,4.1,0,0,0,.07-.51l.14-.34.23-.23c.14-.14.24-.28.38-.44a4.91,4.91,0,0,1,.51-.51l.13-.14s.17-.3.24-.44a4.15,4.15,0,0,0,.17-.41,2.46,2.46,0,0,0,.47-.33l.21-.34.1-.41a2.82,2.82,0,0,1,.1-.37,2.37,2.37,0,0,0,.34-.21c.13-.1.67-.61.78-.74a3.27,3.27,0,0,1,.71-.68c.17-.07,0,.2.17-.07a2,2,0,0,0,.23-.64,1.39,1.39,0,0,1,.11-.41c.06-.1-.24,0,.06-.1a4.31,4.31,0,0,1,.61-.2l.11,0,.4-.54s.48-.4.48-.51,0-.47.1-.57a2,2,0,0,0,.24-.41s.27-.27.4-.37.31-.41.61-.65a1.48,1.48,0,0,0,.27-.32l.65,0a4.08,4.08,0,0,0,.1.58,8.78,8.78,0,0,1,.07,1.25l0,.51s0,.31,0,.48a4.35,4.35,0,0,1,0,.71.74.74,0,0,0,.07.37.43.43,0,0,1,0,.24v.51a2.6,2.6,0,0,1-.14.67v.44l-.14.21v.2a1.14,1.14,0,0,0,.17.47l.11.21a1.39,1.39,0,0,1-.11.51.84.84,0,0,1-.06.13,2.39,2.39,0,0,0-.11.54l0,.24v.31a.41.41,0,0,0,.07.2l-.14.47v.34a3.17,3.17,0,0,0,.21.51,1.39,1.39,0,0,1-.07.81l-.2.27s-.07.45-.11.85a.9.9,0,0,0,.27.68,3.48,3.48,0,0,1,.21.34c.07.13,0,.2.07.34a2.84,2.84,0,0,1,.17.71v.37s.13.2.3.41,0,0,.07.13a4.28,4.28,0,0,0,.24.48,1.11,1.11,0,0,0,.64.44,5.14,5.14,0,0,0,1.22,0c.34-.06.44-.2.34-.44s.17-.57.17-.67.1-.24.27-.41a1,1,0,0,0,.17-.71,1.79,1.79,0,0,1,.44-.88,2.16,2.16,0,0,0,.27-1.26c-.07-.34,0-2.4,0-3.86a18.15,18.15,0,0,0-.61-4.13,10.71,10.71,0,0,1-.34-1.56c0-.09-.07-.54-.16-1.13l.23.08c.34.13.85.24,1.22.34a3.09,3.09,0,0,1,.81.23,6.45,6.45,0,0,1,.68.58,7.16,7.16,0,0,0,.68.48,4,4,0,0,0,.75.23c.33.1.67.41.77.41s.48.24.72.27A1,1,0,0,0,170.2,52.43Z"/><path class="cls-1" d="M198.22,58.3c0-.28-.38-.24-.41-.41a4.56,4.56,0,0,0-.13-.81c-.11-.31-.31-.17-.38-.38a1.88,1.88,0,0,0-.4-.78.72.72,0,0,1-.24-.64,1,1,0,0,0-.37-.71,1.4,1.4,0,0,1-.38-.85c-.06-.34-.54-.64-.81-.81s-.51-.48-.78-.68a2.55,2.55,0,0,0-1.46-.13c-.67,0-1.72,0-2.5.06a16.18,16.18,0,0,0-2.1.14,3.94,3.94,0,0,0-.82.37,3.76,3.76,0,0,1-1.32.2H186a1.67,1.67,0,0,1,0-.24c0-.31-.14-1.36-.17-1.7a1.76,1.76,0,0,1,0-.57,2,2,0,0,0,.07-.65,7.27,7.27,0,0,1,0-.74,6.3,6.3,0,0,1,0-1.15,5.29,5.29,0,0,0,.23-1,18.38,18.38,0,0,0,0-3.05,11,11,0,0,1-.1-1.59,3.16,3.16,0,0,1,0-.51l.17-.58a1.12,1.12,0,0,0,.55-.71,1.56,1.56,0,0,1,.23-.84,5.22,5.22,0,0,1,.65-.45c.2-.1.3-.27.44-.33a1.05,1.05,0,0,1,.37-.17c.17,0,.51-.17.64-.21s-.13.11.14,0,.27-.31.37-.41a4.1,4.1,0,0,1,.82-.64,2,2,0,0,1,.64-.27.87.87,0,0,0,.34-.14.75.75,0,0,0,.17-.27,1.93,1.93,0,0,0,0-.34A.69.69,0,0,1,192,36a2,2,0,0,0,1.22-.48c.17-.27.17-.44.27-.5a2.19,2.19,0,0,0,.61-.61,8.74,8.74,0,0,0,.37-1.77,2,2,0,0,0-.81-1.66c-.54-.34-2.3-1.22-2.64-1.56a1.35,1.35,0,0,0-1.12-.3l-.34,0a4.22,4.22,0,0,1-.64.38,1.51,1.51,0,0,0-.48.3,2,2,0,0,0-.3.34,2.11,2.11,0,0,0-.17.51,1.36,1.36,0,0,1-.1.37l-.27.17-.31.14-.3.17-.28.27-.47.3-.54.31a3.77,3.77,0,0,0-.07-.61,6.52,6.52,0,0,1,0-1.16,5.79,5.79,0,0,1,.13-1.08,1.23,1.23,0,0,0,.14-.54,3.35,3.35,0,0,0,0-.48,2.06,2.06,0,0,0,0-.33,3,3,0,0,1,0-.48c0-.1.16-.2.3-.3s.61-.28.54-.65-.13-.74-.37-.78-.41-.57-.44-.81a2.61,2.61,0,0,0-.51-1.42,22.22,22.22,0,0,0-2.17-2.21c-.67-.5-1.08-1-1.76-1.08s-1.49-.07-2-.07-1.32,0-1.83,0-.31-.17-.51,0a1,1,0,0,1-.61.2c-.14,0-.34.2-.61.58a1.17,1.17,0,0,0-.2.94,1.66,1.66,0,0,0,.4.68,2.47,2.47,0,0,1,.27.34l.31.17c.1.24.24.51.24.51s.34.2.37.3a2.42,2.42,0,0,0,.3.41l0,.51,0,.44a.31.31,0,0,0,.21.07c.13,0,.2,0,.33.1a.68.68,0,0,1,.24.54c0,.17-.07.51-.07.51s-.34.27-.37.47a3.37,3.37,0,0,0,0,.82,3.62,3.62,0,0,0,.2.4l.17.21a.55.55,0,0,1,.1.64,3.47,3.47,0,0,0-.37,1.35,7.63,7.63,0,0,0,.1,1.56,6.27,6.27,0,0,1,.37,1.63c0,.23,0,1.58,0,2.38l-.19.16c-.23.24-.37.44-.54.58a.67.67,0,0,1-.37.13,1.49,1.49,0,0,0-.44-.07,1.43,1.43,0,0,0-.68.31,6.6,6.6,0,0,1-1,.54,6.39,6.39,0,0,0-1.22.78,6.25,6.25,0,0,1-.95.61,1.64,1.64,0,0,1-.74.27c-.21,0-.48-.07-.58-.07s.1-.3-.1,0l-.2.31-.11.85-.23.23.47-.17c.17-.06.41-.4.41-.4A2.66,2.66,0,0,0,172,41a3.55,3.55,0,0,0,.51.85c.2.16.44.2.61.44s.2.37.37.5a3.54,3.54,0,0,0,.58.44,4.83,4.83,0,0,0,.68.21,3.39,3.39,0,0,1,.84.44,4.44,4.44,0,0,0,.95.34c.31.06.82.06,1.09.1a2.82,2.82,0,0,1,.71.13,1.63,1.63,0,0,0,.35,0c0,.32,0,.56,0,.68,0,.85-.2,6.44-.27,7.12,0,.42-.13,1-.19,1.52h0a6.13,6.13,0,0,0-.88.24c-.21.1-.82.57-1.12.78a7.91,7.91,0,0,1-.85.51,2,2,0,0,0-.51.37s-.74.17-1.08.3a4.63,4.63,0,0,0-1.12.82,4.35,4.35,0,0,1-.95.71c-.34.17-1.12.44-1.52.64s-.88.65-.71,1.09a2.57,2.57,0,0,0,.67,1.15,19,19,0,0,0,1.8,1.22,10.09,10.09,0,0,0,1.08.61c.52.24,1.39,0,1.56.07a2,2,0,0,0,.85.33,3.43,3.43,0,0,0,1.05-.06,5.24,5.24,0,0,0,.74-.41,4.39,4.39,0,0,0,.51-.37.56.56,0,0,1,.44-.07h.38l.54,0c.17,0,.34-.34.47-.44a.56.56,0,0,1,.38-.07,1.82,1.82,0,0,0,.74-.1.35.35,0,0,1,.48.13c.06.1.44.07.64,0s.27-.58.34-.71.24-.17.51-.17a6.05,6.05,0,0,0,.88,0,2.56,2.56,0,0,0,.51-.17,1.13,1.13,0,0,1,.33-.2.8.8,0,0,0,.21-.07l.81-.1c.31,0,.92,0,1.22,0a5,5,0,0,0,1.25-.54.51.51,0,0,1,.75.33c.07.31,0,0,.17.07a5.46,5.46,0,0,0,1,0,.91.91,0,0,0,.51-.14.86.86,0,0,1,.61.1c.23.11.23.21.37.24s.71,0,1.12.07,1.83.13,2.1.17l1,.13a3.92,3.92,0,0,1,.85.21,5.06,5.06,0,0,0,1.18.17c.41,0,.61-.55.68-.82A5.48,5.48,0,0,0,198.22,58.3Z"/><path class="cls-1" d="M41.54,51.36c-.08-.78-.08-1-.21-1.16L41.21,50a1.18,1.18,0,0,1-.09-.38c0-.16,0-.58,0-.58A6.33,6.33,0,0,1,41.08,48a7.71,7.71,0,0,0,0-1.33l0-.21a3.24,3.24,0,0,1-.21-.83v-.54a3.7,3.7,0,0,0,.09-.49c0-.13-.42-1.13-.5-1.37a1.6,1.6,0,0,1-.08-.54c0-.13-.09-.34-.09-.5V42a3.37,3.37,0,0,0,.71-.91,3.78,3.78,0,0,0-.37-3c-.17-.21.16-.08-.17-.21s-.21.17-.33-.12a2.41,2.41,0,0,1-.17-.59.41.41,0,0,0-.12-.29l-.13-.08-.46-.25L39,36.38l-.13-.29-.29-.17-.41-.29a3.93,3.93,0,0,1-.5-.5,5.94,5.94,0,0,0-.83-.66,8,8,0,0,0-1.17-.92A8.33,8.33,0,0,0,34.06,33c-.33-.08-1.12-.08-1.24-.12s-.46-.09-.46-.09l-.33.09-.29-.09-.54.13-.46.25-.41,0H30s-.45-.17-.58,0l-.12.12-.29.17-.46.08-.33.13-1,.54a3.21,3.21,0,0,1-1.53.33c-.42,0-1.46.12-1.46.12l-.49.38a3.57,3.57,0,0,1-.54.2h-.42l-.46.25a1.33,1.33,0,0,1-.41.25l-.17,0-.66,0a2.8,2.8,0,0,0-.62-.21,5.33,5.33,0,0,0-1.29-.08A4.88,4.88,0,0,0,18,35.5l-.13.09-.74.2s-.46.13-.75.25l0,0a2.65,2.65,0,0,1,0-.6,7,7,0,0,1,.25-.86,16.23,16.23,0,0,0,2.24-.55c.87-.33,3.7-1.08,4.61-1.37a18.86,18.86,0,0,0,3.11-1.08,11.78,11.78,0,0,1,3.22-.79c.87-.12.94-.64,1.68-.91a12.08,12.08,0,0,1,3.12-.08,2,2,0,0,0,1.49-.29c.42-.25,1.12-.46,1.58-.79a12.78,12.78,0,0,1,2.41-1,2.54,2.54,0,0,0,1.28-2.61,11.19,11.19,0,0,0-1.86-2.41,8.27,8.27,0,0,1-1.87-1.46,2.33,2.33,0,0,0-1.79-.87,3.2,3.2,0,0,0-1.91.38,8,8,0,0,1-2.28.91c-1.16.37-5.19,1.79-8.1,2.86-1,.38-2.86,1-4.9,1.72,0-.15,0-.25,0-.25s.1-2.21.1-3a3.4,3.4,0,0,0-1.37-2.16c-.58-.5-3.53-2.49-4.49-3s-2.45-.21-2.49.29a5.57,5.57,0,0,1-.08,1.41,1.86,1.86,0,0,0,.21,1.54,6.66,6.66,0,0,1,.87,4c0,.83-.33,2.33-.42,2.87,0,.19-.09.61-.16,1.06-.56.2-1,.33-1.08.39C9,29.69,6.08,30.9,5.29,31.1A10.17,10.17,0,0,1,2,31.52a3.48,3.48,0,0,0-1.78.7c-.71.46.41.88,1,1.29S2.59,35.38,3.67,36s3.41.62,5.86.33l.32,0c-.11.72-.21,1.33-.28,1.66-.29,1.37-1.37,6-1.95,8.22s-1.71,6.56-2.54,8.64-1.66,4.44-2.15,5.56-1.33,2.78-.71,2.54,1.33-.79,1.7-.54a.67.67,0,0,0,1-.25c.25-.34,1.33-2.74,2.24-4.24s1.2-2.7,2-3.69a11.81,11.81,0,0,0,1.58-2.45c.25-.67.95-1.83,1.33-2.87a6.87,6.87,0,0,1,.54-1.37,2.27,2.27,0,0,1,.33-1.29,4.13,4.13,0,0,0,.43-.81,13.64,13.64,0,0,0-.22,1.52c0,.58-.09,2.12-.09,3s-.12,2.33-.2,3.11-.38,2.79-.38,2.79c-.25,2.07-.62,5.39-1,6.64s-.54,2-.29,2.37a4.42,4.42,0,0,0,1.08.87.62.62,0,0,0,.78-.5c.05-.5.46-.83,1-1a7,7,0,0,0,1.29-.74,3.38,3.38,0,0,0,1-.92,6.22,6.22,0,0,0,.7-2.78,9.93,9.93,0,0,1,0-1.25,2.94,2.94,0,0,1,.25-.66c.09-.12.21-.25.17-.37s.12.25,0-.13a6.4,6.4,0,0,1-.29-.79s.37-.25.58-.2.95.08,1.12-.09l.5-.5s.12-.45.25-.41-.33-.21.12,0,.17.21.46.25a1.64,1.64,0,0,0,.58,0l.46-.25.62-.08a.87.87,0,0,0,.37-.17l.13-.12.29-.13,1.08-.37c.33-.13-.09-.13.33-.13a7.4,7.4,0,0,1,1,0c.16,0,.41,0,.58,0a2,2,0,0,0,.45,0,.91.91,0,0,1,.38,0c.12,0-.21,0,.12,0h.33l.34-.29.54-.09.24-.12s.54-.42.67-.37-.21,0,.12,0,0,0,.34.08l.83.12a1.19,1.19,0,0,0,.54-.08l.08-.25.16-.5.3.25.7.13a16.7,16.7,0,0,0-.08,1.91,16.46,16.46,0,0,1-.33,2.86,1,1,0,0,1-1.08,1c-.71,0-3.2.33-3.86.29s-1.37.08-1,.62a2.51,2.51,0,0,0,1.45,1,10.93,10.93,0,0,1,2.37.87c.54.37.58.83.75,1a1.94,1.94,0,0,0,.78.24c.3,0,.42.5.54.71s.38.29.54.66.21.88.46.92a8.18,8.18,0,0,1,1.21.25,1.44,1.44,0,0,0,.91,0,2.9,2.9,0,0,1,.75-.29,3.14,3.14,0,0,0,1.62-.21,7,7,0,0,0,2.07-1.62c.21-.46,1-2.16,1.29-2.61a21.45,21.45,0,0,0,1.12-5.19C41.37,54.23,41.62,52.15,41.54,51.36ZM17.71,43.52c.08-.33.83-.42,1.08-.46s.49-.12.62-.12.33-.29.33-.29l.33-.25.33-.21.67-.08.46-.13.33-.08a4.68,4.68,0,0,0,.54-.08l.58-.21h.17c.16,0,.49-.38.78-.58s0,0,.13,0a7.44,7.44,0,0,1,.79.2l.21-.29.7-.29a3.38,3.38,0,0,0,.54,0c.17,0,.29,0,.46,0a1.28,1.28,0,0,0,.37-.08l.5-.37.12-.05c.13,0,.5,0,.71,0s.41-.41.41-.41h.46l.13,0c.12,0,.62-.21.62-.21a1,1,0,0,0,.46-.12.92.92,0,0,1,.33-.17,4.66,4.66,0,0,0,.87.33c.37.09.21.46.21.87s0,1.75,0,1.75l-.37,0h-.54a2.51,2.51,0,0,1-.46-.13,2.57,2.57,0,0,0-.5-.08,1.94,1.94,0,0,0-.58.08l-.25-.08a.76.76,0,0,0-.42.12.87.87,0,0,0-.16.38s-.75.08-1,.08H26.8c-.13,0-.42.29-.42.29l-.12.17c-.13.16-.54.12-1,.21s-.83.45-.95.45a3.13,3.13,0,0,0-1,.33,6,6,0,0,0-.7.46,5.41,5.41,0,0,1-.92.17,2.15,2.15,0,0,0-.62.2,1.4,1.4,0,0,0-.33.25l-.17.05c-.17,0-.25.16-.46.16a2.21,2.21,0,0,0-.74.17,3.8,3.8,0,0,0-1,.37.21.21,0,0,1-.37-.12l-.13-.58v-.63l0-.12c0-.13-.25-.38-.25-.5A1.16,1.16,0,0,1,17.71,43.52Zm14.61,4.56a4.71,4.71,0,0,0,0,.92H31.24c-.46,0,0,0-.12,0a2.38,2.38,0,0,0-.42.25l-.79.12-.33.13c-.33.12,0,0-.37.25s0,0-.21,0-.62.16-1,.21-.37.2-.37.2-1,.34-1.29.38a3.59,3.59,0,0,0-.62.16A1.81,1.81,0,0,1,25,51a4.22,4.22,0,0,0-1.24.41l-.33.25c-.34.25,0,0-.21,0s-.71,0-.92,0a.92.92,0,0,0-.53.24.41.41,0,0,0-.17.3s-.75.12-1,.12a3.78,3.78,0,0,0-1,.33c-.54.21-1.54.62-1.66.71s-.5,0-.5,0V53a3.13,3.13,0,0,1,.37-.62c.25-.33,0,0,.08-.12a1.64,1.64,0,0,0,.17-.5c0-.17-.21-.33-.21-.33l-.5-.17L17.29,51a1.36,1.36,0,0,1,.08-.66c.08-.26.75.08.75.08l.46-.16.21-.3h.45l.5-.08.5-.21.54-.08.29-.21h.25s.62-.41.79-.54.45-.37.45-.37a2.67,2.67,0,0,0,.54-.17c.17-.08.25-.25.38-.29a5.26,5.26,0,0,1,.62-.12,6.53,6.53,0,0,1,.87-.13,2.66,2.66,0,0,0,.79-.08l.83-.37.33-.21.46.12h.54l.25-.41.12-.08c.13-.09.34-.29.5-.42a.64.64,0,0,1,.54,0l.54.12h.58s.42,0,1,0a1.73,1.73,0,0,0,.79-.21s0,.34,0,.54A8.53,8.53,0,0,1,32.32,48.08Z"/><path class="cls-1" d="M94.53,55.19l-.25-.08L94,54.93a1.91,1.91,0,0,1-.28-.77v-.31a4.11,4.11,0,0,0-.55-.17c-.08,0-.4,0-.54-.09a3.23,3.23,0,0,1-.4-.54c-.06-.12-.26-.06-.43,0a8,8,0,0,1-.86,0s-1.08-.17-2.14-.46a29,29,0,0,1-4.86-2.4,45.49,45.49,0,0,1-4.31-2.88l-.18-.15.38-.31c.37-.32.94-.4,1.23-.6s1.23-.66,1.54-.91,1.14-.8,1.37-1a7.69,7.69,0,0,1,.69-.34l.46-.09s0,.2,0,.32V45a1.35,1.35,0,0,0,.12.43s.46.09.66-.06a.83.83,0,0,0,.42-.62,3.84,3.84,0,0,0-.11-1.4c-.11-.32,0,0-.06-.12s-.25-.57-.28-.66a3.58,3.58,0,0,1-.17-1,2.91,2.91,0,0,0-.38-1.23c-.14-.28,0,0-.11-.08a1.58,1.58,0,0,1-.31-.4c-.09-.14-.29-.49-.35-.57a3.46,3.46,0,0,0-.43-.4,3.07,3.07,0,0,1-.2-.34c.58-.38,1.2-.79,1.34-.85s.23-.8.18-1.38,0-5.84.08-6.74,0-6.31.14-6.81a1.43,1.43,0,0,0-.54-1.23,13.24,13.24,0,0,0-1.22-1,6.26,6.26,0,0,0-1.7-.64c-.78-.2-1.25-.58-1.75-.69s-1.58-.4-2-.53A8,8,0,0,0,76,18.07c-1.11,0-1.17.54-1.61.93a23.25,23.25,0,0,1-2.45,1.64c-.47.27-1.5.91-2.12,1.36s-1,.86-1.42.93a4.85,4.85,0,0,0-1.43.3h0a.66.66,0,0,0-.21.08c-.16.1-.75.78-.95.89a2.46,2.46,0,0,1-1.07-.05.43.43,0,0,0-.5.38c0,.25-.06,1.73,0,1.89s.25.32.39.45.58.4.64.54a5.15,5.15,0,0,0,.29.57,2.94,2.94,0,0,0,.33.4A4.28,4.28,0,0,1,66,29.43c0,.39-.2,3-.22,3.85s0,9.46,0,10.17a4.27,4.27,0,0,1-.13.95,5.54,5.54,0,0,0-.55-1.08c-.53-.72-2-2.68-2.87-3.65s-2.28-3.11-2.88-3.8-1.23-1.21-.84-2.13.7-1.86,1.28-3,1.39-2.75,1.66-3.29a3.13,3.13,0,0,0,.14-2c-.19-.55-1-.91-1.24-1.47s-.28-1-.79-1.08a1.47,1.47,0,0,1-.86-.48c-.13-.14-.55-.31-.7-.58s-.74-1-1.19-1a2.18,2.18,0,0,0-2,.66,10.29,10.29,0,0,1-2.13,2.63l-1.37.33a6.49,6.49,0,0,0-1.87,1.17c-.33.37-1.08.87-1.33,1.2s-.42.58-.66.67a3.39,3.39,0,0,1-1,.33,6.29,6.29,0,0,0-.66,0s-.17.08-.25.5-.29.79-.17,1l.13.17.45.12s.25,0,.33.13a3.94,3.94,0,0,1,.31.49,2.62,2.62,0,0,0,.28.51c.11.13.53.17.67.2s.38,0,.55.07.26,0,.32.15a.84.84,0,0,0,.32.3,2.38,2.38,0,0,0,.31.08,1.18,1.18,0,0,0,.19.06,4.07,4.07,0,0,1,.07.64c0,.28,0,10.3,0,11.22s.05,12.63.07,13a2.46,2.46,0,0,1-.25,1.18,8.26,8.26,0,0,0-.72.92A3.18,3.18,0,0,0,48.34,60c.09.42.21.67.29,1s.58.8.66,1.09.64,1.55.75,1.83a3.2,3.2,0,0,0,.82,1c.24.12.86.34,1.13.18a8.14,8.14,0,0,0,1.48-1.07A7.13,7.13,0,0,0,54.64,62a18.63,18.63,0,0,0,.13-3.49c0-.67-.38-2.59-.43-3.13s-.29-3.44-.29-4.23c0-.16,0-.57,0-1.14a2.12,2.12,0,0,0,.54.22,5.75,5.75,0,0,1,1.28.72A19.71,19.71,0,0,0,57.92,52a14.69,14.69,0,0,0,3.45.61,4,4,0,0,0,2.75-1,9.52,9.52,0,0,0,1.12-1.54c0,.78,0,1.43,0,1.73,0,.93-.2,5.83-.2,6.13a.4.4,0,0,1-.31.42c-.13,0-.2.75-.08,1.2a21.45,21.45,0,0,0,1.7,3.16,12.58,12.58,0,0,0,2.89,2.09c.75.45,1.61.58,2.17-.16s1.78-2.7,2.23-3.35,1.17-1.64,1.34-1.81.6-.57.72-.72a.8.8,0,0,0,.06-.61.45.45,0,0,1,.05-.31c0-.11.16-.19.14-.36s0-.49,0-.53a3.05,3.05,0,0,1,.31-.42,1.62,1.62,0,0,0,.4-.42,5.29,5.29,0,0,1,.27-.66l.19-.28c.07-.13.17-.27.23-.39a1.21,1.21,0,0,1,.14-.3c.06-.06.41-.59.41-.59a14.32,14.32,0,0,1,1.55,1.7,5.76,5.76,0,0,0,1.06.91,20.84,20.84,0,0,1,1.85,2,4.18,4.18,0,0,0,1.15,1,6.44,6.44,0,0,0,1.74.28,12.08,12.08,0,0,0,2-.28l1.06,0a4.25,4.25,0,0,1,1,.31c.14.09.37.43.54.4a3.15,3.15,0,0,0,1.06-.51,1.43,1.43,0,0,1,.6-.63,9.87,9.87,0,0,1,1.34-.54,1.29,1.29,0,0,0,.54-.52c.12-.14,0-.51.17-.83a3.88,3.88,0,0,1,.6-.77,2.49,2.49,0,0,0,.29-.25.85.85,0,0,0,.17-.46A1.73,1.73,0,0,0,94.53,55.19ZM53,31.25c0-.15,0-.34.07-.37a1.13,1.13,0,0,1,.2-.09c.05,0,1-.94,1.09-1.08A2.84,2.84,0,0,1,55,29.3c.15-.07.35,0,.34.3a2.77,2.77,0,0,1-.16.94c-.14.31-.73,1.06-.87,1.43a3.73,3.73,0,0,1-.36.59,4.61,4.61,0,0,0,.25-1.07c0-.28,0-.42-.09-.44a1.15,1.15,0,0,0-.36.1,1.92,1.92,0,0,1-.27.17C53.39,31.36,53.06,31.41,53,31.25Zm6.9,14.21c-.08.47-.4,1.11-.79,1.18a13.61,13.61,0,0,1-3,0c-.72-.14-1.85-.23-2.16-.34l-.17-.05c-.09-1.74-.17-3.4-.17-4,0-.92-.06-3.85-.08-5.71a1.94,1.94,0,0,0,.47.77c.79.71,1.32.35,1.26,0s.38-.25.44-.16a7.83,7.83,0,0,1,.55,1.34c.07.38.15.86.34,1a8.13,8.13,0,0,1,.81,1.21c.22.33.83,1.11,1.09,1.49s1,1.29,1.11,1.48A4.68,4.68,0,0,1,59.93,45.46ZM77.36,34.59c0,.23.15.34.17.46s.15.43.15.43-.29.17-.63.4,0,0-.29,0,0,0-.17.06a1,1,0,0,0-.31.2l-.8.17-.37.12c-.09,0-.12.34-.12.34a3.17,3.17,0,0,0-.71.26l-.32.23-.08,0a3,3,0,0,1-.37.06,1.73,1.73,0,0,0-.66.2l-.2.26-.29.08c-.28.09,0,0-.08,0a.65.65,0,0,0-.2.15l-.2.25a3.43,3.43,0,0,1-.52.12c-.11,0-.48.05-.57.17a1,1,0,0,1-.37.2L70,38.76s0-.88,0-1.17-.07-1.37-.06-1.71.77-.12.77-.12l.11-.23,0-.28.32.06.31,0,.46,0,.23-.09.08-.43.2-.14.26-.09.17-.2.09-.2.25-.08.35-.23h.34l.29,0a2.56,2.56,0,0,0,.31-.06,1.09,1.09,0,0,1,.26,0l.14-.2.23-.43.23-.14.2-.29.57-.25a1.31,1.31,0,0,0,.26-.29,5.47,5.47,0,0,1,.31-.57l.23.06c.23.05.23.17.46.4s.11.28,0,.14,0,0,.06.14a4.16,4.16,0,0,1,.09.63c0,.17-.18.46-.18.6S77.36,34.36,77.36,34.59Zm-7.57-4.8c0-.26.12-1,.12-1,0-.47.57-.49.57-.49l.31,0,.23-.06.31-.12.15-.22.08-.2.2-.06.29-.06.31-.14.12-.29.31-.08.29-.12.23-.2.57-.2.23-.17c.22-.17,0,0,.08,0a.71.71,0,0,1,.26,0,4.14,4.14,0,0,0,.63-.11l.23-.29,0-.08c.06-.09.23-.52.23-.52l.09,0c.08-.06.4,0,.51,0a1.26,1.26,0,0,0,.6-.43c.23-.32.66,0,.66.4a15.93,15.93,0,0,1,0,1.63c-.06.65-.11,1.22-.14,1.31s-.32.06-.49.06a.38.38,0,0,0-.23.05l-.28.12s-.35.23-.46.28a4.23,4.23,0,0,1-.49.15,1.85,1.85,0,0,0-.57.31,7.46,7.46,0,0,1-.83.66c-.28.2-1,.28-1.4.48a5.23,5.23,0,0,0-.88.52c-.06.08-.14.48-.29.48a.76.76,0,0,0-.51.18,2.46,2.46,0,0,1-.52.31,4.89,4.89,0,0,1-.54-.17.34.34,0,0,1-.14-.37,6.44,6.44,0,0,1,.2-.72C69.91,30.36,69.76,30.05,69.79,29.79ZM75.1,52.62c-.53.42-2.85,2-3.41,2.39s-1,.59-1.36.81-.92.27-.81-.26a11.4,11.4,0,0,1,.31-1.33,2.37,2.37,0,0,0,.19-.75A2.62,2.62,0,0,1,70,53c0-.11.31-.36.3-.7s-.41-1-.43-1.27.11-2.81.13-3.82c0-.24,0-.83-.09-1.58.37.38.82.79,1.2,1.24.6.71,1.91,2.46,2.37,2.94A12.31,12.31,0,0,0,75,51.16a5.68,5.68,0,0,1,1.09.77C75.64,52.23,75.27,52.49,75.1,52.62Zm3.66-9.2a4.78,4.78,0,0,0-.88.71c-.2.18-.52.66-.66.69l-.81.11c-1.11-.79-2.16-1.53-2.53-1.82l-1.73-1.37c.14-.08.41-.24.47-.26a2.62,2.62,0,0,1,.49,0,2.9,2.9,0,0,0,.34.05,2.49,2.49,0,0,0,.31-.05l.15-.23a2.42,2.42,0,0,0,.42-.23,2.63,2.63,0,0,1,.52-.31c.14-.06.74-.15,1.14-.26s.29-.54.83-1,.63,0,.71.17.43.11.89.14l2.07.12.1.68.14.09a1,1,0,0,1,.4.37c.2.26,0,0,0,.23a2.35,2.35,0,0,1-.8,1A13.23,13.23,0,0,1,78.76,43.42Z"/><path class="cls-1" d="M458.19,65.84l0,0v0Z"/><path class="cls-1" d="M524,60.57a8.61,8.61,0,0,1-.47-1.86,1.89,1.89,0,0,0-.51-1.06,4.91,4.91,0,0,1-.4-.54,9.12,9.12,0,0,1-.51-1.2c-.11-.37-.11-.48-.26-.62s.08.14-.14-.15.07-.07-.22-.29a2.44,2.44,0,0,0-.73-.44c-.18,0-.22-.65-.51-1a3.32,3.32,0,0,0-.55-.62l-.21-.15-.26-.18a.69.69,0,0,0-.33-.26l-.4-.07a8.61,8.61,0,0,1-.84-.51l-.11-.11s-.25-.33-.32-.44.18.08-.08-.11,0,0-.25-.18a2.91,2.91,0,0,0-.58-.22l-.92-.36a3.74,3.74,0,0,1-.51-.15l-.18-.07-.58-.22-.29-.11-.29-.11-.51,0-.26,0-.25,0-.4.18a3.73,3.73,0,0,1-1.1.18,15.83,15.83,0,0,0-1.78.15c-.44,0-2.19.07-2.48.07s-1.09,0-1.31,0a4.5,4.5,0,0,1-.59.11c-.14,0,.08-.07-.14,0s.36.07-.22.07h-1.42c-.15,0-.51,0-.51,0a3.19,3.19,0,0,0-.69.07,5,5,0,0,1-1.42.18,2.47,2.47,0,0,0-.7,0c-.14,0,.22,0-.14,0l-.62.11-.26,0a2.48,2.48,0,0,0-.69,0c-.11.07-.4,0-.58.11a1.4,1.4,0,0,1-.4.07c-.18,0,.07,0-.18,0l-.78.1h0c.1-.8.23-1.64.25-1.83s.27-3,.36-4,.21-4.48.15-5.3a14.06,14.06,0,0,0-.75-3.85,13.44,13.44,0,0,0-2.2-3.47,7.51,7.51,0,0,0-.81-.84c-.09-.12-.27-.27-.3-.39s0,0-.12-.3l-.17-.27h0a1.72,1.72,0,0,0,.39-.21,1.09,1.09,0,0,1,.39-.15s.42-.06.51-.06l.42,0,.3-.15.27-.12a4.23,4.23,0,0,0,.49-.06,1.28,1.28,0,0,1,.33-.06c.09,0,.33-.15.42-.15a2.21,2.21,0,0,0,.48-.33,3.12,3.12,0,0,1,.33,0,3.12,3.12,0,0,0,.33,0l.61-.21.21-.12s.21-.06.36-.12a6,6,0,0,1,1-.24,2.63,2.63,0,0,0,.73-.27,4.74,4.74,0,0,0,.48-.28c.15-.09.72-.18,1-.27a2.32,2.32,0,0,1,.54-.06.76.76,0,0,0,.22-.18,1.67,1.67,0,0,0,.45-.24,1.67,1.67,0,0,1,.57-.27.57.57,0,0,1,.3,0h.27a1.22,1.22,0,0,0,.3-.09,2.1,2.1,0,0,1,.45-.42c.22-.12,0,0,.1,0a1.62,1.62,0,0,0,.24,0s.36,0,.63,0,0,0,.27-.06,0,0,.21-.21,0,0,.24-.12,0,0,.06-.09a1.57,1.57,0,0,1,.36-.25h.09l.49,0a1.23,1.23,0,0,0,.33,0c.09,0,.21-.12.3-.15a4.72,4.72,0,0,0,.39-.3c.18-.12.63-.48.63-.48l.3-.15.49-.21.09,0a.82.82,0,0,0,.39-.51,10.5,10.5,0,0,1,.78-1.3,5.63,5.63,0,0,1,.36-.54c.09-.09.48-.6.48-.6v-.18a1.09,1.09,0,0,1,.06-.34l.22-.15a3.19,3.19,0,0,0,.09-.42c0-.09.27-.42.27-.42a2,2,0,0,0,.06-.63c0-.3,0,0-.09,0s.27-.54.27-.54l.06-.22.06-.24-.09-.36-.12-.36-.12-.21-.06-.36-.06-.18a2.67,2.67,0,0,1-.15-.3c0-.09-.24-.15-.52-.3s-.42-.73-.54-.91-.27-.33-.39-.51a2.1,2.1,0,0,0-.42-.51,1.76,1.76,0,0,0-.48-.3.33.33,0,0,1-.18-.28.47.47,0,0,1-.37-.24c-.15-.24-.36-.51-.36-.51l-.12-.06-.21-.09-.36-.36-.18-.18-.07-.07h0l0,0h0c-.09-.09-.33,0-.42,0s-.45-.24-.64-.3a3,3,0,0,0-.51-.06,1.59,1.59,0,0,1-.33-.09c-.09,0-.21-.15-.48-.42s0,0-.12-.1a4.56,4.56,0,0,0-.91-.36,5.16,5.16,0,0,0-1.41-.09,1.66,1.66,0,0,0-.51.09,4.4,4.4,0,0,0-.49.24.74.74,0,0,0-.18.12l-.27.13v.09c0,.09-.24.15-.24.15l-.27.18c-.09.06-.63.33-.63.33l-.36,0c-.09,0-.36.12-.49.12s-.36.06-.51.06a1.89,1.89,0,0,0-.6.18,1.94,1.94,0,0,0-.45.3,3.57,3.57,0,0,1-.45.27c-.12.06-.85.33-.85.33h-.15c-.15,0-.3,0-.48,0a1,1,0,0,0-.57.12c-.21.12-.72.76-.85.79a2.35,2.35,0,0,1-.42.06,1.87,1.87,0,0,0-.69.24,3.73,3.73,0,0,0-.39.3c-.09.06-.21.06-.42.15a1.2,1.2,0,0,1-.45.09,1.48,1.48,0,0,1-.52,0c-.12,0-.3.12-.51.24a5.59,5.59,0,0,1-.63.42,1.15,1.15,0,0,0-.36.15.7.7,0,0,1-.33.06c-.1,0-.25.06-.46.09s-.18.13-.3.19a2.85,2.85,0,0,1-.81.27,1.43,1.43,0,0,0-.81.3c-.28.21-.58.51-.67.54a1.74,1.74,0,0,1-.51.09.53.53,0,0,0-.39.18c-.12.09-.39.36-.39.36a5.22,5.22,0,0,1-.7,0,3.79,3.79,0,0,0-.48,0,1.19,1.19,0,0,1-.57.3c-.24,0,0,0-.21,0a3.29,3.29,0,0,0-.78.18c-.18.09-.43.37-.55.43s-.3,0-.66-.06a2.59,2.59,0,0,0-.9.09c-.21,0-.27.12-.45.24s-.22.12-.22.12l-.09,0c-.09,0-.3.12-.42.15l-.33.09a2.64,2.64,0,0,0-.63.18c-.24.12,0,0-.15.06a6.24,6.24,0,0,1-.85.18c-.33.06-1.05.06-1.2.09s-.33.12-.69.24a6.46,6.46,0,0,1-.79.21c-.15,0-.3,0-.54.06s-.21.12-.36.12-.87,0-1.2,0a2.84,2.84,0,0,0-.73.24c-.3.1,0,0-.3,0s0,0-.15.07a2.83,2.83,0,0,1-.6.09l-.79.12c-.59.09-2.22.18-2.38.18s-.33,0-.42,0a1.47,1.47,0,0,0-.33,0c-.15,0-.3.12-.39.12a2,2,0,0,0-.57.15.83.83,0,0,0-.36.45c-.06.12,0,.27.06.42a1,1,0,0,1-.24.69,1.36,1.36,0,0,0-.46.82,1.74,1.74,0,0,0,.15.93,1,1,0,0,0,.31.36l.24.24.15.28c.15.27,0,0,0,.15s0,.24,0,.33a3.11,3.11,0,0,1,0,.48s.39.48.36.39l0,.09a4,4,0,0,0,.36.48l.51.48c.09.1.18.19.33.37s.85,1,1.09,1.23,1,.91,1,.91l.27.33.18,0c.19,0,.19.12.4.27s.54.33.66.42.36.12.6.27a5.1,5.1,0,0,0,1.24.6.94.94,0,0,1,.51.27,1,1,0,0,0,.36.15c.15,0,.54.19.84.25a1.88,1.88,0,0,1,.64.33,3.16,3.16,0,0,0,.36,0h.15a1.64,1.64,0,0,1,.36.06,2.72,2.72,0,0,0,.57.15,15.58,15.58,0,0,0,2.14.15c.51,0,1,0,1.51,0a2.12,2.12,0,0,1,.48.46c.18.33.33.6.48.9s.21.37.21.58a5.44,5.44,0,0,0,.15.93,4.51,4.51,0,0,1,.09.87,4.52,4.52,0,0,0,.09.67c0,.18-.06-.12,0,.18a4.41,4.41,0,0,1,.21,1c0,.27-.18,1.06-.18,1.21s0,.6,0,.6,0,.9,0,1a6.15,6.15,0,0,0-.15.79,2.43,2.43,0,0,1,0,.45c0,.21,0,.36,0,.48a.88.88,0,0,0-.09.3c0,.15,0,.24-.06.36l0,.12a.63.63,0,0,1,0,.37,1.36,1.36,0,0,0-.09.33l0,.33v.42a2.68,2.68,0,0,1-.21.63,1.44,1.44,0,0,0-.18.63c0,.13.06.85,0,1a4.59,4.59,0,0,1-.27.72,7.12,7.12,0,0,0-.24,1.63c0,.3-.18,1.26-.21,1.56s-.12.91-.15,1.15c0,.06,0,.19,0,.36a3.15,3.15,0,0,1-.42.15c-.36.11-.87.19-1.23.26s-1.28.4-1.53.44-1.13.07-1.43.11a2.86,2.86,0,0,0-.87.22,3.13,3.13,0,0,1-.44.18l-.69.25a1.64,1.64,0,0,0-.62.11,5.4,5.4,0,0,1-.62.4,3.53,3.53,0,0,1-.55.15,4.81,4.81,0,0,1-.54.14c-.11,0-1-.11-1.17-.11a3.77,3.77,0,0,0-.62.08,1.09,1.09,0,0,0-.43.14c-.15.08-1.21.26-1.35.33s-.88.26-.88.26-.91.36-1.05.43l-.55.29a5.62,5.62,0,0,1-.73.3,1.6,1.6,0,0,0-.47.11,1.42,1.42,0,0,1-.48.21c-.21,0-1.45.44-1.85.55s-1.61.55-2,.58-1.82.44-2.44.51-1.75.11-2.15.22-1.53.08-1.13.77a9.16,9.16,0,0,0,.73,1.27c.18.19-.22-.11.18.19s.54.43.69.54.4.69.62.91.4.33.51.44l.51.47.26.26.36.36h0s0,0,0,0l.09.08.29.29.29.11.26.08a3.39,3.39,0,0,1,.4.4,1.21,1.21,0,0,0,.51.4,5.5,5.5,0,0,1,.76.43c.33.22.62.51.84.66a2.37,2.37,0,0,0,.8.37c.33.07.37.1.62.14a6.71,6.71,0,0,1,.69.07,5.41,5.41,0,0,0,.77.19,10.07,10.07,0,0,0,2-.22c.62-.15,1.75-.4,2.19-.48a5.26,5.26,0,0,0,1.31-.51c.29-.14.69-.07,1-.22a3.19,3.19,0,0,1,.88-.18,10,10,0,0,0,1.27-.07,2,2,0,0,0,.91-.36,2.36,2.36,0,0,1,.55-.37l.29,0,.33,0a2.2,2.2,0,0,1,.29-.15,2.91,2.91,0,0,1,.51,0c.11,0-.18-.22.11,0s.44.32.55.25l.11-.07s.14-.29.18-.4,1.09,0,1.38,0a13.34,13.34,0,0,0,1.57-.4,9.84,9.84,0,0,0,1.6-.32,9.09,9.09,0,0,1,2.26-.26,2.56,2.56,0,0,0,.95-.15,3.64,3.64,0,0,1,.8-.18c.15,0,2.77-.25,3.72-.36a21.14,21.14,0,0,1,2.36-.18c.66,0,1.39,0,1.75,0a1.27,1.27,0,0,0,.59-.11,2.79,2.79,0,0,1,.43-.07,4.21,4.21,0,0,1,.84.07,3.71,3.71,0,0,0,.95.07h1.53c.18,0,.33,0,.51,0a6.38,6.38,0,0,0,.73.14,11.83,11.83,0,0,0,1.42-.07,4.64,4.64,0,0,1,1.57,0,13.27,13.27,0,0,0,1.71.26l.58,0s.51.08.95.11a3.66,3.66,0,0,0,.69,0c.18,0,.29-.11.4-.11a1.53,1.53,0,0,1,.51.19,1.51,1.51,0,0,0,.44.18h.11c.25,0,.62,0,.62,0h.29a3.42,3.42,0,0,0,.36,0h.11a6.22,6.22,0,0,1,.59.25,2.76,2.76,0,0,0,1,.3c.4,0,.84,0,.84,0h.54a.46.46,0,0,1,.55,0,2.46,2.46,0,0,0,1,.33A7.13,7.13,0,0,0,514,66c.22,0,.4,0,.55,0a3.16,3.16,0,0,0,.36,0,2.16,2.16,0,0,1,.59.32,1.34,1.34,0,0,0,.73.33c.14,0,.32-.07.51-.07s.32,0,.47,0a.76.76,0,0,1,.58.29c.15.22.15.3.4.37s.51.22.66.25a3.4,3.4,0,0,0,1.42.08,7.5,7.5,0,0,0,2.11-.51,2.83,2.83,0,0,0,1.28-1.5,11.41,11.41,0,0,0,.33-2.26,8.92,8.92,0,0,1,.11-1.42A3.17,3.17,0,0,0,524,60.57Z"/><path class="cls-1" d="M599.2,21.17c0-.26,0-.91,0-1.42a6.52,6.52,0,0,0-.8-2.08A8.48,8.48,0,0,0,597,15.92c-.44-.33-1.09-.47-1.35-.87a3.79,3.79,0,0,0-.47-.62s-.07.07-.36-.07a11.17,11.17,0,0,0-1.17-.51c-.33-.11-1.24-.33-1.93-.48a27.23,27.23,0,0,0-3.28-.11c-.44,0-1.31.08-1.46.08a7.22,7.22,0,0,0-.8,0l-.51.15s0,0-.25.11A4.41,4.41,0,0,0,585,14l-.4.25-.15.4s0,.22-.14.22a3.09,3.09,0,0,1-.4-.07,1.78,1.78,0,0,0-.48-.08,1.4,1.4,0,0,0-.44,0,3.11,3.11,0,0,0-.47.15c-.18.07-.44.29-.66.29h-1l-.51-.11-.36.11a2.38,2.38,0,0,0-.37.07,3,3,0,0,0-.47.18,1.58,1.58,0,0,1-.51.18c-.26,0-1.13.33-1.31.37s-.4,0-.7.07a3.53,3.53,0,0,1-.76.11,7.84,7.84,0,0,0-1.13.11c-.26,0-1.62,0-1.9.11.22,0,.55-.15.81-.22l.47-.14a1.61,1.61,0,0,1,.51-.11,2.36,2.36,0,0,0,.44-.11,7.77,7.77,0,0,1,.91-.26c.11,0,.22-.14.36-.22s.7,0,.8-.07a2.17,2.17,0,0,1,.51,0,2.85,2.85,0,0,0,.62-.11,1.57,1.57,0,0,0,.26-.14l.36-.11.33-.11a6.4,6.4,0,0,1,.62-.22l.29-.07.4-.11.44-.19.22,0,.33,0,.36-.11a2.31,2.31,0,0,1,.55-.07c.22,0,.36-.15.51-.18l1.13-.29a3.1,3.1,0,0,1,.51-.22,1.45,1.45,0,0,1,.33,0,9.14,9.14,0,0,1,1.05-.26,8.09,8.09,0,0,0,1.24-.14.84.84,0,0,0,.69-.8,8.35,8.35,0,0,1,.55-1.42,4.55,4.55,0,0,0-.22-2.26c-.07-.15-.25-.22-.33-.48l0-.11c0-.1-.22-.25-.37-.51s0,0-.11-.07a1.46,1.46,0,0,1-.4-.33c-.11-.14-.18-.32-.44-.36a3.74,3.74,0,0,1-.58-.18c-.11,0-.25-.37-.44-.51a4.89,4.89,0,0,0-.8-.37,4.49,4.49,0,0,0-1.05-.22c-.11,0-.55,0-1.13-.11s-1.31,0-1.72,0-.51.07-.8.29,0,0-.11.18a.55.55,0,0,0-.07.37l-.15.29a4.48,4.48,0,0,1-.21.47,1.53,1.53,0,0,0-.15.37l.11.29c.11.29,0,0,.25.25l.26.11.26.18.1.3a1.77,1.77,0,0,1-.29.61l-.47.19-.29.14-.11.26-.37.22-.43.29-.08.11a1.59,1.59,0,0,1-.43.33c-.22.14,0,0-.11.1s-.44.37-.44.37l-.47.33-.55.47-.47.11s-.22.15-.4.25-.22.22-.44.37-.44.33-.66.44l-.62.32-.29.19-.18.11a6.87,6.87,0,0,1-.91.32,1.2,1.2,0,0,0,0-.36,1,1,0,0,1,0-.47,1.57,1.57,0,0,1,.18-.37c.11-.14,0,.07.11-.14a6,6,0,0,1,.33-.55l.07-.11a8,8,0,0,1,.48-.91,1.09,1.09,0,0,0,.22-.55,2.88,2.88,0,0,1,.07-.36,13,13,0,0,0,1.06-1.39c.1-.32.14-.58.21-.73l.08-.14s-.33-1.24-.4-1.42-.37-.91-.37-.91L574.24,5a2.39,2.39,0,0,1-.18-.29,8.58,8.58,0,0,0-.8-.77c-.19-.18-.59-.51-.7-.62a2.32,2.32,0,0,1-.22-.36c-.07-.11.08.22-.07-.11s.15,0-.14-.33l-.3-.29-.58-.51-.51-.15-.36-.14s-.22-.11-.33-.18-.26-.08-.33-.19-.65-.32-.84-.47a3.61,3.61,0,0,0-.4-.26,1.78,1.78,0,0,0-.36-.14L567.5,0a1.76,1.76,0,0,1-.29,0c-.11,0-.33,0-.33,0a2.6,2.6,0,0,1-.36,0h-.15a.94.94,0,0,1-.58,0L565.53,0s-.55.07-.62.18-.65.73-.76.91,0,.29-.22.4l-.22.11s-.22.44-.15.59.08-.26.08.14v.4a.71.71,0,0,0-.08.26c0,.11.11.25.11.36a1.36,1.36,0,0,0,.19.4,13,13,0,0,1,.1,1.5,3.57,3.57,0,0,1-.25.73s-.18.76-.26,1a5.93,5.93,0,0,0-.14,1.34,2.19,2.19,0,0,1,.07.7c0,.14-.18.29-.18.4a1.36,1.36,0,0,1,0,.4,1.66,1.66,0,0,0-.07,1.49s-.11,1-.18,1.24a10.09,10.09,0,0,0-.18,1c0,.18-.08.33-.11.47a2.07,2.07,0,0,0,0,.41l-.07.43-.08.37-.11.29a2.18,2.18,0,0,1-.07.33,1.21,1.21,0,0,0-.07.36c0,.15-.07.58-.07.77s0,.5,0,.76l-.76.11a12.21,12.21,0,0,1-1.7,0v-.14s-.18-2.4-.18-3a14.9,14.9,0,0,1,.18-2.66,13.87,13.87,0,0,1,.47-1.45,3.47,3.47,0,0,0,.29-1.53,6.33,6.33,0,0,0-.29-1.28s-.11-.25-.14-.36.14.29,0-.11l-.18-.4a3.12,3.12,0,0,0-.26-.48,2,2,0,0,1-.36-.33c-.11-.14.14.15-.11-.14s-.44-.51-.44-.51l-.33-.37-.58-.62c-.11-.1-.58-.83-.8-1s-.73-.4-.88-.65a3,3,0,0,0-.47-.66,1.73,1.73,0,0,0-.76-.43c-.44-.15-1.35-.33-1.53-.41s-.81-.25-1.06,0a2.75,2.75,0,0,1-.88.62c-.18.07-.25.44-.36.58a4.46,4.46,0,0,0-.73,1.46,5,5,0,0,0,0,1.82,7.62,7.62,0,0,0,.58,1.82,13.8,13.8,0,0,1,.73,1.21c.07.29.25,1.24.29,1.67a1.93,1.93,0,0,0,.14.66c.08.25.48,2.48.55,2.91s.44,3.57.51,4.23c0,.3,0,.55.06.74-.19.07-.37.16-.61.24a6.5,6.5,0,0,1-1.16.22c-.15,0-.84-.18-1.13-.07s-1,.28-1.58.49h0a1.32,1.32,0,0,0-.28-.38l-.25-.26s-.15,0-.15-.25a2.69,2.69,0,0,1,0-.8l.07-.22a1.26,1.26,0,0,1,0-.51c.07-.29-.08,0,.07-.29s.11-.08.14-.33,0,0,0-.26a1.18,1.18,0,0,1,.07-.21l.11-.3s.26-.32.33-.43-.11.14.07-.11a1.41,1.41,0,0,0,.15-.77s0,.09-.33.22c0,0-.76.33-1.13.44a3.7,3.7,0,0,1-1.38.11,3.31,3.31,0,0,0-.59-.66c-.25-.18,0,.07-.25-.18a6.27,6.27,0,0,0-.55-.44s-.4-.69-.51-.84l-.33-.43c-.07-.11.22.14-.07-.11s-.14,0-.29-.26a6.85,6.85,0,0,1-.33-.94A2.31,2.31,0,0,0,543,12a2.15,2.15,0,0,0-.26.44s-.18-.07-.25,0a1.2,1.2,0,0,0-.11.4c0,.11,0-.26,0,.11a1.22,1.22,0,0,1-.18.73c-.22.43-.22.8-.4.94a4,4,0,0,0-.69,1,1.76,1.76,0,0,0-.3.91c0,.29.08,1,.08,1.31a1.38,1.38,0,0,0,.22.69,2.83,2.83,0,0,0,.32.51,5.6,5.6,0,0,0,.55.66,5,5,0,0,0,.62.62c.18.14.47.33.55.51s.25.51.32.73c-.47.07-1.23.11-1.45.18s-1.21.18-1.42.25-.77.08-1.06.19-1.53.29-2,.4-1.42.25-1.71.36-.73.11-1.17.29a5.44,5.44,0,0,1-1,.33,9,9,0,0,0-.94,0,2.63,2.63,0,0,1-.88.07c-.25,0-.58.11-.76,0s-1.06-.4-1.06.15a3.17,3.17,0,0,0,.25,1.31,2.94,2.94,0,0,0,.88,1,3.06,3.06,0,0,1,.84.55,5.1,5.1,0,0,0,.73.65c.14.11-.11,0,.14.11a2.14,2.14,0,0,1,.48.29c.14.11-.15,0,.14.11s-.18,0,.29.15a7.63,7.63,0,0,0,.95.25,2.57,2.57,0,0,1,.44.11l1,.44a5.89,5.89,0,0,0,1.32.29,6.71,6.71,0,0,0,1.56,0c.33,0,.73,0,.84,0s.47,0,.66-.08l.18-.11a1.85,1.85,0,0,0,.33-.14,1.08,1.08,0,0,1,.4-.15c.18,0-.11.15.18,0a4.45,4.45,0,0,1,.65-.3l.44-.18s.62-.14.91-.25.37-.08.51-.22l.15-.15a1.42,1.42,0,0,1,.69-.22h.37a1,1,0,0,0,.61-.18c.15-.07.19-.18.41-.22s.94,0,1.56-.07l.22.26.26.36s.4.29.29.58-.22.62-.22.62a2.4,2.4,0,0,1,.18.69c0,.15,0,.48,0,.48a2.1,2.1,0,0,1,.18.47,3.87,3.87,0,0,0,.22.62.44.44,0,0,0,0,.29l.08.19a1,1,0,0,1,.22.32c0,.15,0,.08.25.37s.48.58.48.58h0a1.32,1.32,0,0,1-.43.21,16.29,16.29,0,0,1-2.15.07c-.91,0-2.08.22-2.44.26a3.29,3.29,0,0,0-1,.11.64.64,0,0,0-.32.4c0,.14-.11.22-.08.36s.08.4.08.4v.33s-.11.29,0,.4l.07.11.29.36s0,.3-.07.33-.07-.25-.11,0a.82.82,0,0,0,.11.58l.07.11a1.44,1.44,0,0,1,.44.26,1.31,1.31,0,0,0,.29.36c.15.11-.14-.07.15.11a5.33,5.33,0,0,0,.65.33s0,0,.22,0a1.13,1.13,0,0,1,.51.41,1.43,1.43,0,0,0,.48.47c.14.07-.11.07.14.07h.66c-.15,0,.29.26.36.4a.43.43,0,0,0,.4.29,7.87,7.87,0,0,0,1,0,1.88,1.88,0,0,0,.58-.11c.29.07.62.11.62.11a1.57,1.57,0,0,1,.33-.07h.11c-.11,0,.32-.08.47-.11a2,2,0,0,1,.4,0l.36-.14a2.91,2.91,0,0,1,.7-.19,1.41,1.41,0,0,0,.54-.11,3.09,3.09,0,0,1,.66-.1,1.2,1.2,0,0,0,.47,0,2.55,2.55,0,0,1,.51-.11l.53-.08a2.64,2.64,0,0,1,.46.37,2.8,2.8,0,0,1,.73,1.28,3,3,0,0,1,0,1c0,.26,0,.69-.07.71h0l-.47.09c-.55.07-1.13.15-1.61.18s-2.15.08-2.48.08-2.66.25-2.95.32a8.35,8.35,0,0,1-1.38.11h-1.28a7.48,7.48,0,0,1-.83-.07c-.3,0-.37-.11-.7-.18s-.4,0-.62-.11-.25-.26-.76-.26-.73,0-1,.19a1.93,1.93,0,0,0-.61,1.16,2.21,2.21,0,0,0,.25.88,2.13,2.13,0,0,0,.4.73c.18.18.51.47.51.47a3.16,3.16,0,0,0,.51.51c.26.18.66.51,1.09.87a4.81,4.81,0,0,0,1.24.59c.44.22.66.29.88.43s-.07.11.22.15a3.48,3.48,0,0,1,.69.11c.44.11.36.18.73.22a4.92,4.92,0,0,0,.94,0,4.32,4.32,0,0,1,.66,0,3.77,3.77,0,0,0,.91-.18,7.46,7.46,0,0,1,1.35-.29,6.43,6.43,0,0,0,1.35-.11,4.14,4.14,0,0,1,1-.22c.29,0,.65-.11,1-.15s.54-.07.65-.07h.29A2.47,2.47,0,0,1,557,48c0,.32,0,.54,0,.73s0,.52-.06,1.05a5.14,5.14,0,0,0-.67.07c-.18.08,0,.08-.18.08a14.33,14.33,0,0,0-2,.18c-.4.11-3.54.55-4.38.66s-3.57.43-4.26.58-3.13.36-3.93.55-3.06.54-3.65.61a17.78,17.78,0,0,1-2,0,25,25,0,0,1-2.88-.07,5.2,5.2,0,0,0-1-.18h-.18s-.14,0-.25.14a1.46,1.46,0,0,0-.29.73,6.1,6.1,0,0,0,0,1.13,1,1,0,0,0,.48.62c.21.15.29.11.43.33a1.87,1.87,0,0,0,.48.47A1.24,1.24,0,0,1,533,56a8.77,8.77,0,0,0,1,.87,3.1,3.1,0,0,1,.54.37l.11.1s.11.33.22.37-.18,0,.11,0a.83.83,0,0,1,.55.21l.11.11a3.24,3.24,0,0,0,.51.26,1,1,0,0,1,.36.14,3.11,3.11,0,0,0,1,.33,9.09,9.09,0,0,0,2.15-.07c.8-.11,1.93-.37,2.4-.44l1-.2a4.74,4.74,0,0,1-.4.93A14.36,14.36,0,0,1,541,61.4a44.73,44.73,0,0,1-3.06,3.35A10,10,0,0,1,536,66.28a1.21,1.21,0,0,0-1,.8,5.45,5.45,0,0,0-.36,2.4c.11.73.36,1.17.4,1.53a3.81,3.81,0,0,0,.33,1.5c.25.4.33.33.58.76a5.23,5.23,0,0,0,.62.81,4.42,4.42,0,0,0,.55.58,1.73,1.73,0,0,0,1.09.62,4.46,4.46,0,0,0,1.79-.15A3.45,3.45,0,0,0,541.52,74a3.28,3.28,0,0,0,.47-1c.15-.4.62-1.39.8-1.82s.59-.88.66-1.17.15-.62.18-.76,0-.22.08-.37,0,.15,0-.14l.08-.3.21-.4a.81.81,0,0,1,.19-.22,5.85,5.85,0,0,0,.47-.43,2.85,2.85,0,0,0,.91.43,4.6,4.6,0,0,1,1.13.55l1.31.84a7.06,7.06,0,0,0,1.06.62,1.86,1.86,0,0,1,.62.29c.11.11.11,0,.33.29a6.35,6.35,0,0,0,.65.58c.18.19.66.48.84.66s.4.44.4.44a.91.91,0,0,0,.26.22c.1,0-.19-.11.1,0a3.37,3.37,0,0,1,.59.4,1.36,1.36,0,0,1,.29.26,2.06,2.06,0,0,0,.62.47,8.23,8.23,0,0,1,1.27,1.1,8.64,8.64,0,0,1,.59.8,1.74,1.74,0,0,0,.36.47c.15.11.33.11.4.29s.69.88.88,1.2a1.37,1.37,0,0,0,.47.59c.18.11-.07,0,.18.11s-.07-.11.26.11a6,6,0,0,1,.84.83,1.32,1.32,0,0,0,.51.4l0,0h0l.16.06c.36.14.14.14.36.14s0,.08.22,0a2.74,2.74,0,0,1,.58-.11c.11,0,.26,0,.4,0s-.29.25.15,0a3.93,3.93,0,0,0,.44-.26c.33-.22,0-.14.33-.22a9.19,9.19,0,0,0,1.09-.32,1.47,1.47,0,0,0,.73-.4c.18-.22.29-.55.47-.66s.44-.22.58-.33l.15-.11a2.62,2.62,0,0,0,.18-.51,1.41,1.41,0,0,1,.11-.36l.18-.22.19-.37s.18-.21.25-.32a1.61,1.61,0,0,0,0-.55s.11-.55.22-.62a1.09,1.09,0,0,0,.29-.58,5,5,0,0,1,.07-.59,1,1,0,0,1,.33-.8c.4-.32.47-.36.47-.58s0-1,0-1,.18-1.82.18-2.29.18-1,.15-1.2-.11-1.75-.15-2.08,0-.88,0-1.17-.14-1.93-.14-2.37-.15-1.71-.15-2.11,0-1.09,0-1.27-.08-.55-.08-.55-.18-1.17-.22-1.39a3.27,3.27,0,0,1-.07-.51c0-.18,0-.52,0-.52l.26,0c.65-.08,2.55-.08,3.39-.08s2.62-.1,3-.1l.84,0h0l.18.27v.29c0,.15-.15.18,0,.4a1.45,1.45,0,0,0,.4.48l.15.07s.21-.11.36.18a4.51,4.51,0,0,1,.22.88c.07.21-.18,0,.07.21s0,0,.26.22a1.59,1.59,0,0,1,.4.7,2.81,2.81,0,0,0,.22.47,1.5,1.5,0,0,0,.4.51c.11.07.29.18.29.29s.22.77.25,1a1,1,0,0,0,.15.48c.11.14.15.22.25.36s-.21-.43.11.15a10.19,10.19,0,0,1,.59,1.64,4.75,4.75,0,0,0,.29.62c.11.22,0-.11.11.22s.07.4.18.58.18.4.25.51a.85.85,0,0,1,.22.33c.11.25.3.36.26.51s.4.73.51,1,.25.88.33,1.1a5.88,5.88,0,0,0,.54.87c.15.22.11.22.26.47s0-.07.14.26a11.33,11.33,0,0,1,.48,1.28.94.94,0,0,0,.22.51,1.67,1.67,0,0,1,.25.36c.07.11.18.33.37.73a12.31,12.31,0,0,0,.94,1.75,3.64,3.64,0,0,0,1.21,1.16,2.52,2.52,0,0,0,1.27.48,5.63,5.63,0,0,0,1.35-.11,1,1,0,0,0,.69-.26,1,1,0,0,1,.47-.22,1.4,1.4,0,0,0,.7-.11c.33-.14.47-.29.51-.43a2.34,2.34,0,0,0,0-.37,5.1,5.1,0,0,0,.73-.69,3.82,3.82,0,0,0,.29-.47,6.65,6.65,0,0,0,.4-.91l.08-.26s0-1.16.07-1.49a12.61,12.61,0,0,0,.22-2.33c-.07-.7-.66-2.19-.73-2.74a5,5,0,0,0-.29-1.27,4.77,4.77,0,0,0-.37-.59,1.21,1.21,0,0,0-.43-.4c-.15-.07-.37-.65-.51-1a5.12,5.12,0,0,0-.4-.76c-.08-.11.32.07-.08-.11a2.88,2.88,0,0,1-.4-.18,2.32,2.32,0,0,1-.65-1.06,1.69,1.69,0,0,0-.4-.69,7.68,7.68,0,0,1-.88-.91,1.5,1.5,0,0,0-.29-.48c-.18-.18.07,0-.18-.18s-.91-1-1.13-1.16-.44-.15-.51-.33a1.2,1.2,0,0,0-.33-.48,2.73,2.73,0,0,0-.33-.14c-.14-.08-.18-.22-.36-.29l-.18-.08a5,5,0,0,1-.55-.62,3,3,0,0,0-.47-.44c.49,0,.88,0,1.09,0,.84.07,1.75.18,2.4.22a5.72,5.72,0,0,1,1.24.14l1,.26a8.14,8.14,0,0,1,.83.11l.19.07.36.11a.58.58,0,0,1,.33,0c.14.08-.11,0,.14.08l.26.11a1.42,1.42,0,0,0,.51.07l.18,0h0c-.15,0,.69.11.69.11l.4.15s.73.29.84.36a2.62,2.62,0,0,0,.51.26,2,2,0,0,0,1,.07,6.61,6.61,0,0,0,1.6-.69c.55-.26.62-.51.66-.62s.11-.4.11-.4-.11-.8.07-1.06a3.35,3.35,0,0,0,.33-.66,1.79,1.79,0,0,0,0-.32v-.15a8.7,8.7,0,0,0-.26-1.16c-.11-.26-.18-.59-.25-.77l-.08-.18s-.91-1.1-1.24-1.53a5.8,5.8,0,0,0-.91-.91c-.14-.15.15,0-.14-.15a10.48,10.48,0,0,0-1.5-.87,3.81,3.81,0,0,0-.47-.19c-.26-.07-.36,0-.51-.1s-1-.44-1.31-.59a6.39,6.39,0,0,0-1-.25c-.11,0,.15,0-.11,0s-1.16,0-1.45,0-.69,0-.88,0a5.87,5.87,0,0,0-.76,0c-.11,0-2.3,0-2.55,0l-.26,0s-1.49.22-1.93.22a13.21,13.21,0,0,0-1.78,0c-.51.07-1.94.25-2.26.25a8.41,8.41,0,0,0-1.24.18,6.29,6.29,0,0,1-1.28.11c-.58,0-2.51.29-3.13.29a7.32,7.32,0,0,0-1.46.15,3.3,3.3,0,0,1-.58.11,7.72,7.72,0,0,0-.77.22c-.18,0-.51.18-.8.22s-.14.07-.65.14-.53.1-1,.13c0-.23.07-.41.07-.53s0-.22,0-.47a2.93,2.93,0,0,0,0-.59.92.92,0,0,1,0-.47c0-.18.07.07,0-.18a5.54,5.54,0,0,1,0-.62l.29,0a10.78,10.78,0,0,0,2.51-.36,10.91,10.91,0,0,1,2.63-.62,13.48,13.48,0,0,0,2.58-.37,24.92,24.92,0,0,1,3.07-.62,9.36,9.36,0,0,0,2.95-.83,9.62,9.62,0,0,1,1.34-.77,6.9,6.9,0,0,0,1.35-.44,2.31,2.31,0,0,0,.55-.72c.11-.19.22-.62.44-.77s.47-.11.54-.36.29-.59,0-.91a5.13,5.13,0,0,0-.62-.77,7.05,7.05,0,0,0-.84-.73c-.4-.25-.62-.33-.73-.4a4.63,4.63,0,0,1-.47-.22,7.68,7.68,0,0,0-1.13-.58,7.85,7.85,0,0,0-1.46-.4,1.82,1.82,0,0,0-.87.18l-.11.07-.29.22a1.59,1.59,0,0,1-.51.11s0,0-.22.07-.62.26-.73.48l-.11.22-.62.36-.36.22s-1.17.18-1.57.29a7.64,7.64,0,0,0-1,.33l-.4.18a1.36,1.36,0,0,1-.33.22,7.54,7.54,0,0,1-1.42.07,6.78,6.78,0,0,0-1.13.37,1.76,1.76,0,0,0-.44.11c-.22.07-.51.11-.66.18s-.47.14-.72.22-.84.14-1.06.18a2.28,2.28,0,0,0-.69.07l-.34.07c0-.24,0-.4,0-.43a2.68,2.68,0,0,0,0-.8c0-.19.08-.33-.07-.59s.15,0-.15-.25l-.58-.44c-.15-.11.23.37-.15-.11l-.36-.48a5.52,5.52,0,0,1,.55-.07c.8,0,1.78-.25,3-.32a12.53,12.53,0,0,0,2.33-.4,22.2,22.2,0,0,1,2.59-.37c.4,0,1.46-.29,1.79-.29a11.7,11.7,0,0,1,1.93-.11,6.78,6.78,0,0,0,1.89,0,1.68,1.68,0,0,0,.58-.26c.19-.11-.07-.07.19-.11a3.05,3.05,0,0,0,1.75-.29c.65-.44.58-1,.87-1.6a8.9,8.9,0,0,0,.62-2.3c0-.51.11-.94.11-1.13a1.37,1.37,0,0,0-.15-.47l0-.11a2.49,2.49,0,0,0-.4-.84,3,3,0,0,1-.48-.4h0l-.06-.1-.15-.22a.85.85,0,0,0-.11-.29,1.18,1.18,0,0,0-.29-.44,2.76,2.76,0,0,0-.76-.14,5.58,5.58,0,0,0-1,.14c-.18,0-.36.08-.69.11a6.54,6.54,0,0,1-1.31.33l-.67.08s0,0,0,0-.07.18,0-.15-.07,0,.11-.33,0-.14.18-.29l.22-.14.29-.29.07-.22v-.22a1.31,1.31,0,0,1,.11-.37c.08-.1,0,.37.08-.1l.07-.48a.78.78,0,0,1-.11-.33c0-.14,0-.47,0-.47.88,0,1.9,0,3.1.07s2,.08,2.62.11a10.35,10.35,0,0,0,1.46.18c.55,0,1,0,1,0a2.37,2.37,0,0,1,.4,0,2,2,0,0,0,.47.11,8.34,8.34,0,0,1,1.28.15,10.74,10.74,0,0,0,1.78.25c.66,0,1.49,0,2.51.11a22.42,22.42,0,0,0,2.85,0,3,3,0,0,0,1.42-.58c.22-.11.69-.33,1-.51a4.06,4.06,0,0,0,1-1.24A3.68,3.68,0,0,0,599.2,21.17ZM591.3,56Zm-29-31c.3,0,.44,0,.59,0l.4-.22a4.93,4.93,0,0,1,1-.19,8.78,8.78,0,0,0,1.42-.1c.36-.11.8-.15.91-.19s.22,0,.33-.07.32-.07.51-.11a2.79,2.79,0,0,1,.54,0c.11,0,.18,0,.4,0H569a1.68,1.68,0,0,1,0,.29,2.06,2.06,0,0,1-.07.47l-.3.22s-.29.29-.47.51-.07-.11-.18.22a4.22,4.22,0,0,1-.18.58,2.6,2.6,0,0,0-.19.37l-.21.14-.51.11v.51s-.4.59-.62.84a3.26,3.26,0,0,0-.48.62c-.06.15-.18.25-.27.42l-.38.09c-.11,0-.44.07-.55.07h-.36c-.11,0-.19-.11-.48,0l-.58.22-.84,0c-.18,0-1,.14-1.06.14a3.39,3.39,0,0,0-.43.08s0,0-.26,0-1,.11-1.13.15l-.62.15a7.13,7.13,0,0,0-1.45.21c-.18.06-.39.11-.61.16l0-.08a3,3,0,0,0-.55-.59l-.76-1-.15-.18c.15.18,0,.15-.14-.18s0,0-.11-.33-.22-.4-.22-.51,0-.22-.07-.33l-.11-.11a3.28,3.28,0,0,0-.22-.25l-.09-.09,0,0,0,0-.3-.3c-.11-.23-.2-.39-.26-.52a5.15,5.15,0,0,1,.73-.1c.7,0,1.43-.07,1.64-.11s.48,0,.62-.07.4-.07.51-.11l.11,0,.4-.21.22,0c.18,0,.26.11.4.07s-.11.11.15,0-.11,0,.25-.15,0,0,.37-.11a7.45,7.45,0,0,1,1.49-.25C561.09,25,562,25,562.32,25ZM556.6,61.47c0,.4-.14,1.05-.14,1.46s.11,1.53.11,1.78,0,1.53,0,1.86a2,2,0,0,1-.33.76,2.16,2.16,0,0,1-.73.19,15.38,15.38,0,0,1-2.58,0,4.37,4.37,0,0,1-1.35-.36,3.46,3.46,0,0,0-.91-.29,5,5,0,0,0-.77-.08c-.32,0-1.24-.54-1.45-.54s.07.14-.22,0a3,3,0,0,0-.55-.29,3.4,3.4,0,0,1-.58-.26,4.73,4.73,0,0,0-.48-.29,5.86,5.86,0,0,1-.58-.38,4.84,4.84,0,0,0,.15-.82c0-.66.11-1.64.14-2s.29-.47.33-.83.15-1,.15-1.1a.92.92,0,0,1,0-.33c0-.11,0-.29,0-.4a3,3,0,0,0,.26-1c0-.29-.11-.36-.11-.51a.68.68,0,0,0,0-.4c-.09-.33-.18.22-.09-.32a2.5,2.5,0,0,1,.35,0,15,15,0,0,0,2.33-.22c.66-.15,1.71-.29,2.66-.4s2.44-.55,3.06-.69a6.78,6.78,0,0,1,1.61-.18c0,.47,0,.84,0,1C556.9,57.31,556.64,61.07,556.6,61.47Z"/><path class="cls-1" d="M555.28,28.81h0Z"/><path class="cls-1" d="M555.28,28.81Z"/><path class="cls-1" d="M582.28,27.68s0-.05,0,0Z"/><path class="cls-1" d="M559.59,79.41Z"/><path class="cls-1" d="M408.26,41.82c0-.46,0-2-.06-2.75a6.62,6.62,0,0,1,0-1.14.85.85,0,0,0,0-.39l0-.24s-.06-.51-.09-.91-.15-.81-.15-.93a6.63,6.63,0,0,1,0-.78c0-.27,0-.61,0-.61a4.59,4.59,0,0,1,.06-1,1.6,1.6,0,0,0,.12-.66,2.06,2.06,0,0,0-.06-.39c-.06-.19.06-2.63.06-3.17s.06-3,.09-3.67.15-1.33.15-1.81.27-2.2.36-3a13.73,13.73,0,0,0-.45-3.2,17.34,17.34,0,0,0-1.11-2.8,18.91,18.91,0,0,0-1.18-1.8,8.15,8.15,0,0,0-.84-.82c-.3-.27-.69-.66-.93-.84s-.76-.6-.94-.72-1.05-.31-1.26-.46a2.85,2.85,0,0,0-1.42-.3,4.75,4.75,0,0,0-1.75.15,1.48,1.48,0,0,0-.54.52c0,.12-.3.27-.3.27a.47.47,0,0,0-.27.21c-.12.18-.33.51-.3.69l0,.18.15.27a1.78,1.78,0,0,1,0,.33,1.54,1.54,0,0,0-.09.37v.12l0,.3a5.15,5.15,0,0,0-.21.81c-.06.39-.06,1.75-.06,2.23s-.18,1.11-.21,1.66-.09,2.38-.13,2.8l0,.42-.12.51c0,.12,0-.21,0,.12s.06.57.06.73,0,.69,0,.69,0,.75,0,1-.06.45-.06.54v.28a2.44,2.44,0,0,1-.12.57,2,2,0,0,0-.09.21,4.64,4.64,0,0,0-.12.45l-.09.45.21.3v2s0,.94-.06,1-.09.63-.09.63l-.06.33a.73.73,0,0,0,0,.21c0,.12,0-.12,0,.12l0,.24.12.45-.09.21.06.31s0,.51,0,.66,0,1,0,1.26a5.07,5.07,0,0,1-.06.52c0,.09,0-.18,0,.09a1.47,1.47,0,0,0,0,.48v.09l.12.27a6.39,6.39,0,0,1,.09.75,8.2,8.2,0,0,1-.06,1.09c0,.15.09-.12,0,.15a1.41,1.41,0,0,0-.09.27c-.06.24-.12,0-.06.24l.06.24s.06.66.06.9.15,1,.12,1.39a4.6,4.6,0,0,0-.06.81c0,.21.09.46.09.46s-.06,1.08-.06,1.62a10,10,0,0,0,0,1.36c.06.21.09.33.12.45l0,.12s0,.36,0,.48a2.35,2.35,0,0,0,.09.42l.15.55a1.38,1.38,0,0,0,0,.3c0,.09-.06-.12,0,.09s0-.06.1.21a1.72,1.72,0,0,1,.06.6l0,.33.09.33a1.9,1.9,0,0,1,.12.43c0,.21.15.6.18.81l0,.21.24.3s.06.51.06.6v.09l.21.4s.06.63.09.75.15.3.21.54a4.08,4.08,0,0,0,.33.84,6.65,6.65,0,0,1,.3.79l.21.3s.24.51.34.66.12.45.24.63a7.3,7.3,0,0,0,.36.67c.15.18-.09.06.15.18l.24.12s.18.15.18.24a1.22,1.22,0,0,0,0,.33l0,.09.09.18.21,0,.12.24v.21a.74.74,0,0,0,.06.4l.09.12.33.15a2.46,2.46,0,0,1,.4.39c.09.09-.06-.12.09.09s.27.42.27.42l.27.12a2.21,2.21,0,0,1,.18.33,2.27,2.27,0,0,0,.27.54,3,3,0,0,0,.36.43c.09.06.33.27.33.27l.39.36a4.87,4.87,0,0,0,.58.6,3.5,3.5,0,0,0,.39.24,2.46,2.46,0,0,0,.33.12l.18.27.27.3.18.31.21.09.12.06.49.24a1.55,1.55,0,0,0,.18.21c.12.12-.09,0,.12.12l.21.15a2.11,2.11,0,0,0,.3.21c.12.06-.15,0,.12.06l.27.09a2.83,2.83,0,0,1,.69.48l.49.33.18.15c.21.19,0,.1.21.19s0,0,.21.09a3.22,3.22,0,0,1,.51.18c.15.06.39.12.48.15a1.54,1.54,0,0,1,.36.15,4.32,4.32,0,0,1,.4.3,2.83,2.83,0,0,1,.3.12l.12.06.3.06.12,0,.33.18.48.33c.09.06.12.15.3.21a46.57,46.57,0,0,0,1.48.43,3.65,3.65,0,0,0,1,.18,5.3,5.3,0,0,0,1.09.09,3.24,3.24,0,0,1,.84.15,8.5,8.5,0,0,0,1,.06c.3,0,.75,0,.75,0a3.1,3.1,0,0,0,.93.09l.79-.06a2.9,2.9,0,0,1,.51,0c.12,0-.15-.06.12,0a1.93,1.93,0,0,0,.54.09.81.81,0,0,0,.24-.09l.09-.06c-.09.06.54-.12.54-.12s.82,0,1.21-.06a3.65,3.65,0,0,0,1-.18,11.08,11.08,0,0,0,1.12-.46c.27-.15.48,0,.75-.15a2.7,2.7,0,0,1,.27-.15c.24-.12,1.21-.15,1.81-.33a2.88,2.88,0,0,0,.87-.42,4.11,4.11,0,0,1,.48-.21,4.28,4.28,0,0,0,1.06-.48,1.28,1.28,0,0,1,.69-.33,2,2,0,0,0,.73-.43l.39-.39a2.85,2.85,0,0,1,.63-.48c.27-.12.78-.36,1-.42a1,1,0,0,0,.36-.27l.22-.09s.39-.21.6-.36,0-.07.21-.16.57-.33.57-.33.45-.33.72-.57a3.55,3.55,0,0,1,.49-.36l.3-.24a3.68,3.68,0,0,0,.75-.36c.24-.18.09.06.24-.18a1.93,1.93,0,0,0,.21-.46l.91-.75c.15-.12,0,.09.15-.12l.15-.21.15-.24.18-.09a.74.74,0,0,0,.3-.09l.18-.09.18-.09.36-.3a11.17,11.17,0,0,1,.88-1.12,3,3,0,0,0,.54-.75c.06-.12,0,.12.06-.12l.09-.24s.18-.27.3-.49l.12-.21.09-.3.48-.33c.12-.09-.06.18.12-.09l.18-.27s.79-.84.85-.93-.12.15.06-.09.12,0,.18-.25l.06-.24a4.31,4.31,0,0,1,.48-.21l.12,0,.21-.24s.09.06.3-.27.09,0,.21-.33l.13-.33.09-.63.21-.25s.06.09.12-.21,0,0,.06-.3l.09-.27a3.64,3.64,0,0,1,.54-.78,3.9,3.9,0,0,0,.48-.54l.21-.37a2.87,2.87,0,0,1,.06-.3c.06-.27,0-.09.06-.27l.09-.18h0l.09-.51.28-.21,0-.21.09-.3a2.67,2.67,0,0,0,.57-.52c.09-.18,0-.27.12-.36l.54-.57.12-.12.15-.3a4.07,4.07,0,0,0,.66-.88,4,4,0,0,1,.28-.6,1.31,1.31,0,0,0,.27-.39l.06-.18a1.06,1.06,0,0,0,.15-.66c-.06-.33-.15-.45-.36-.36a2.32,2.32,0,0,0-.46.3s-.51,0-.66.21-.63.6-.63.6l-.48.39a2.23,2.23,0,0,0-.61.24,2.33,2.33,0,0,0-.45.55,3.43,3.43,0,0,0-.45.36l-.78.72a.87.87,0,0,0-.15.3,7.09,7.09,0,0,0-1.06.54,1.93,1.93,0,0,1-.45.36l-.09,0a1.48,1.48,0,0,1-.24.37,3,3,0,0,0-.33.3,1.08,1.08,0,0,1-.45.24c-.15,0-.18,0-.43.09a2.43,2.43,0,0,0-.42.27l-.21.21s-.54.3-.69.42-.45.15-.54.21l-.09.06-.55.37-.24.27-.24.15-.78.45-.3.18s.18-.09-.24.09l-.43.18h0l-.57.15a6.28,6.28,0,0,1-.51.42,4.14,4.14,0,0,1-.72.3c-.09,0,.18-.12-.09,0s-.85.49-1,.55a1.33,1.33,0,0,0-.36.21s0,0-.21.21l-.21.24-.27.3-.42.18c-.09,0,.12-.12-.09,0a.94.94,0,0,0-.3.39l-.94.27s-.42.28-.51.37a8.3,8.3,0,0,1-.72.45,6.91,6.91,0,0,0-.82.36,6.16,6.16,0,0,1-.57.24c-.09.06-1.2.6-1.2.6l-.43.12-.33.12-.39.21-.33.18c-1.33.31-1,.28-1,.28l-.37,0a6.49,6.49,0,0,0-.69.24,5.26,5.26,0,0,1-1,.3c-.24,0-1.42.18-1.66.24s-1.26.09-1.81.15-1.92,0-2.5.06a13.59,13.59,0,0,1-2.32-.15,21.44,21.44,0,0,1-3-.75c-.48-.18-1.08-.67-1.26-.73s-.31-.12-.52-.21a5.23,5.23,0,0,1-1.14-.87c-.15-.21-.18-.39-.3-.48l-.12-.09-.3-.24-.24-.46c-.07-.12-.28-.39-.28-.39s-.09-.3-.18-.51l-.09-.21-.42-.42-.12-.21a4.61,4.61,0,0,0-.39-.73l-.15-.18-.09-.39s-.06-.12-.15-.36,0,0-.09-.24.09,0-.06-.24l-.15-.24-.18-.64s-.19-.75-.25-1-.24-1-.27-1.29-.06-.55-.09-.67-.09-.39-.09-.39l0-.33-.06-.36,0-.36v-.33l-.09-.31Z"/><path class="cls-1" d="M258.45,21.37c.05-.08,0-.06,0,0Z"/><path class="cls-1" d="M249.56,62.75Z"/><path class="cls-1" d="M269.07,30.71a9.67,9.67,0,0,1-.47-1,3.85,3.85,0,0,0-.32-.46l0-.08a5.58,5.58,0,0,0-.91-1.13,11.35,11.35,0,0,0-1.78-1.25,12.66,12.66,0,0,1-1.33-.91,16.89,16.89,0,0,1-1.41-1.12,2.11,2.11,0,0,0-1.46-.42,10.06,10.06,0,0,0-1.51.44,6.5,6.5,0,0,0-1,.37c-.15.1-.26.23-.33.26s-.4.08-.5.1l-.34.13-.21.21a3.08,3.08,0,0,1-.65.21,3.79,3.79,0,0,0-.39.05,8.68,8.68,0,0,0-.94.37,7.32,7.32,0,0,1-1.25.42,11.24,11.24,0,0,0-1.75.57c-.26.11-.34.18-.5.24l-.57.2-.24.16-.47.18h-.44l-.26,0-.36.29-.68.18a1.74,1.74,0,0,0-.42.13,1.74,1.74,0,0,1-.34.18l-.16.05s-.39.14-.47.19-.36.1-.47.15-.54.26-.54.26l-.32.14-.65.1a1.28,1.28,0,0,0-.33,0c0-.67,0-1.21,0-1.5a11.34,11.34,0,0,1,.3-2.35l.17-.05c.13,0,.23,0,.31-.06s-.1.06.08,0,0,0,.18-.08a2.61,2.61,0,0,1,.47-.05l.16-.08a1.48,1.48,0,0,1,.28-.16c.14-.05.34-.23.42-.26s.65-.08.65-.08a1.44,1.44,0,0,0,.47-.07l.13-.08a3.67,3.67,0,0,0,.45-.24c.15-.1.15-.28.36-.28s.5-.08.66-.06a.76.76,0,0,0,.39-.05c.08,0-.13.11.08,0l.2-.13a2.62,2.62,0,0,1,.47-.15,1.8,1.8,0,0,0,.39,0,3.39,3.39,0,0,0,.45-.15l.15-.06a2.25,2.25,0,0,1,.29-.18l.45-.13.26-.05.2-.13.45-.11a.74.74,0,0,0,.36-.15c.11-.08.19-.21.26-.24l.87-.23a4.3,4.3,0,0,0,.6-.26,2.21,2.21,0,0,0,.26-.24c.05-.08.1-.26.18-.29a2.17,2.17,0,0,1,.52-.13c.18,0,.5,0,.63,0a.84.84,0,0,0,.52-.26l.08-.13c-.08.13-.13.05.08-.13s-.08-.16.2-.18.42-.11.53-.08a.88.88,0,0,0,.31-.05l.18-.24.13-.34a1.83,1.83,0,0,1,.26-.13c.13,0,.42-.18.52-.21s.58-.39.81-.52a6.33,6.33,0,0,0,1-.44c.21-.18.53-.5.53-.68a4.37,4.37,0,0,1,.05-.5.25.25,0,0,0,.18-.13c0-.1.13-.36.21-.57s.16-.39.16-.39a12.38,12.38,0,0,0,.15-1.88,2.5,2.5,0,0,0-.47-1.64,9.24,9.24,0,0,1-.83-.81,2.24,2.24,0,0,0-.52-.45l-.19,0-.2-.08-.19-.08,0-.23-.1-.32a.28.28,0,0,1-.26,0,6.92,6.92,0,0,0-.89-.55c-.26-.08-.52-.18-.52-.18l-.6-.26c-.11-.06-.42-.21-.55-.29s-1-.08-1.28-.16-1.2-.26-1.33-.26-.73-.21-.91-.1-.63.44-.63.57a1.17,1.17,0,0,1-.21.58c-.08,0-.57,0-.57,0l-.34.08a4.26,4.26,0,0,1-.39.44,2.63,2.63,0,0,1-.55.13l-.29.11-.36.21-.65.13-.32.26a4.05,4.05,0,0,0-.42.13,2.44,2.44,0,0,0-.31.23l-.34.32-.44.15-.47.11a3.74,3.74,0,0,0-.37.08c-.07,0-.41.2-.41.2l-.42.27-.29.18-.39.21s-.29,0-.47.05-.44,0-.6,0h-.06c0-.1,0-.2,0-.27a6.62,6.62,0,0,0-2.17-4.14,17.24,17.24,0,0,0-3.52-2.2A4.72,4.72,0,0,0,238.31,7a1.32,1.32,0,0,0-.63.13,2.09,2.09,0,0,0-.42.29,1.33,1.33,0,0,1-.49.31c-.21,0-.84.21-1,.42a11.89,11.89,0,0,0-.62,1.33,6.21,6.21,0,0,0-.37,2c0,.63.13,2,.13,2.27a1.4,1.4,0,0,1-.29.68,2.44,2.44,0,0,1-.23.31l.13.34a1.72,1.72,0,0,1,.18.58c0,.1,0,1.21-.07,1.94-.4.22-.83.39-1,.48a1.52,1.52,0,0,1-.58.19,7.16,7.16,0,0,0-.75.31l-.58.16a3.44,3.44,0,0,1-.41,0,6.25,6.25,0,0,1-1.05,0,1,1,0,0,0-.67.21,3.32,3.32,0,0,1-.84.29c-.21.05-.57.16-.7.21a5.92,5.92,0,0,1-1.07.26,15.16,15.16,0,0,1-1.52,0,1.35,1.35,0,0,0-.39.1l-.75.08c-.11,0-.24.21-.32.24a4.32,4.32,0,0,1-1.07.13,3.72,3.72,0,0,0-.86,0,3.2,3.2,0,0,0-.34.15l-.36.08s-.34.05-.79.08-1.46.08-2.08.05-1.78,0-1.78,0a4.27,4.27,0,0,0,.06.94c.07.18,0,.47.15.6s0,.65.21.88a2.78,2.78,0,0,0,.55.58,2.06,2.06,0,0,0,.52.26c.13.05.37,0,.47.13a1.14,1.14,0,0,1,.18.47c0,.16-.21.05,0,.16l.6.28a.28.28,0,0,1,.18.24l0,.18a1.28,1.28,0,0,1,.44.13,2,2,0,0,1,.52.55,1.66,1.66,0,0,0,.37.44,1.22,1.22,0,0,0,.36.18s.32-.28.39-.18.13.24.21.34a.69.69,0,0,0,.34.16,2.12,2.12,0,0,0,.52-.19,4.12,4.12,0,0,1,.06.42c0,.11.05.32.18.34a3.22,3.22,0,0,0,.44.08h.08l.47.23s0,.32.18.34a2.51,2.51,0,0,0,.5,0l.6,0h.18s0,.44.18.55a2.65,2.65,0,0,0,.86.08,1.76,1.76,0,0,1,.4,0l.07,0s.5.24.6.26a9.34,9.34,0,0,0,1,.16l.83,0h.5a.48.48,0,0,1,.26-.07c.16,0,.76-.06,1,0s.86.05,1,.08a2.33,2.33,0,0,0,.58,0l.31-.13a1.79,1.79,0,0,1,.31-.31.58.58,0,0,1,.24,0l.32,0c0,.35,0,.6,0,.69-.05.44-.1,2-.13,2.48,0,.06,0,.3,0,.66l-.79.17c-1.62.31-4.44.84-6.81,1.12s-3.89.45-5,.52-3.6.06-4.8.08-2.35,0-2.84,0a.9.9,0,0,0-1,.73,2.47,2.47,0,0,0,.16,1.2,4,4,0,0,0,.78.89,9.44,9.44,0,0,1,1.2,1.25,11.71,11.71,0,0,0,1.31,1.41,9.24,9.24,0,0,0,1.09.86,4.69,4.69,0,0,0,.84.6,16.33,16.33,0,0,0,1.82.63c.55.13,2.46.13,3.84.18s4.77-.15,6.21-.29a8.94,8.94,0,0,0,2.37-.49,14.84,14.84,0,0,1,2-.33c0,.41,0,.71,0,.82,0,.81.13,1.62.16,2s.08,1.8.16,2.43a5.32,5.32,0,0,1,.13,1.08c-2-.09-4.87-.22-6.06-.22-1.72,0-5,.13-6.54.24a50.78,50.78,0,0,0-6.5.91A7.22,7.22,0,0,0,212,50.9a6,6,0,0,0-.39,4.12,8.1,8.1,0,0,0,1.3,2.4,10.59,10.59,0,0,1,1.07,1.47c.18.26.42.6.57.8s.19.45.37.5a1.84,1.84,0,0,1,.39.18s.23.34.34.55a.65.65,0,0,0,.31.34h0l.09,0c.21.11.49.16.57.34a3.78,3.78,0,0,0,.34.55,1.25,1.25,0,0,0,.26.21l.39.42a7.4,7.4,0,0,0,.81.8,8.48,8.48,0,0,1,.84.79,3.82,3.82,0,0,0,.57.57l.44.24c.13.07.42.28.63.39a2.58,2.58,0,0,0,.55.23A3.25,3.25,0,0,1,222,66c.08,0,.18.36.37.52s.39.39.67.65a3.61,3.61,0,0,0,.66.52l.52.29.08.05.28.11.08,0c-.08,0,.45.26.58.34a3.88,3.88,0,0,1,.73.39c.28.24.41.55.65.66a2.8,2.8,0,0,0,.89.2A.77.77,0,0,1,228,70c.15.13.15.31.31.39a.67.67,0,0,0,.39,0h.16s.52.34.62.42a1.5,1.5,0,0,0,.42.24c.18.05.34.05.5.1s.44.23.62.29.79.15,1.18.26a19.63,19.63,0,0,0,2.58.23,8.09,8.09,0,0,1,1.07,0c.1,0,.24.18.44.21a.9.9,0,0,0,.53-.19,5,5,0,0,1,.52-.26l.34-.07a2.22,2.22,0,0,1,.44-.06,5.29,5.29,0,0,1,.7-.18,4.31,4.31,0,0,0,.84,0,4.52,4.52,0,0,0,.49-.24c.08,0,.14-.39.34-.57a1.32,1.32,0,0,1,.68-.34.85.85,0,0,0,.45-.05l.15-.08s.68-.21.79-.26-.21.16.1-.05a2.86,2.86,0,0,1,1-.42,1.42,1.42,0,0,0,.39-.1l.26-.11.5-.23c.13-.06.34-.11.65-.26s.37-.45.47-.47a1.55,1.55,0,0,0,.44-.13c.19-.11.42-.71.5-.84a2.63,2.63,0,0,0,.31-.83c.05-.34.19-3.71.11-5.14q0-.13,0-.36s0,0,.18.07l.45,0,.36.08-.08.31.45.16a2,2,0,0,1,.18.42l.24.13c.2.05.46.39.46.39l0,.21v0c0-.18.52,0,.52,0l.65.37c.14.07.47.31.58.36s.23.21.31.26a1.26,1.26,0,0,1,.29.26c.1.13-.13,0,.1.13a1.08,1.08,0,0,0,.42.21,2.11,2.11,0,0,0,.34.13c.08,0,.47.21.52.32s.16.36.16.36.39.08.47.11a5.6,5.6,0,0,1,.81.67,5.93,5.93,0,0,0,.7.79c.21.15.68.54,1,.81a2.2,2.2,0,0,1,.55.6,1.35,1.35,0,0,0,.32.15l.2.11.08,0a1.85,1.85,0,0,1,.32.24,1,1,0,0,0,.39.34,15.35,15.35,0,0,0,2.48.26c.73,0,.86-.39,1.17-.42a2.22,2.22,0,0,0,1-.52,2.18,2.18,0,0,1,.71-.42c.1,0,.47-.47.7-.55a1.47,1.47,0,0,0,.65-.7,10.1,10.1,0,0,0,.11-3.08c-.18-1.23-.26-1.59-.26-1.9a1.73,1.73,0,0,0-.06-.5l-.18-.13s-.39-.13-.42-.39a2,2,0,0,0-.1-.6l-.05-.08-.37-.21a2.78,2.78,0,0,1-.44-.5l-.1-.18a2.17,2.17,0,0,0-.37-.86,11.29,11.29,0,0,0-1.72-1.43,5.78,5.78,0,0,1-.78-.55l-.32-.11c-.08,0-1.69-1-2-1.2a18.26,18.26,0,0,0-1.54-1.14c-.6-.32-1.62-1-2.06-1.2a3.76,3.76,0,0,1-.71-.42l-.1-.18-.73-.06a8.15,8.15,0,0,0-1-.6,14.39,14.39,0,0,0-2.06-1,11.43,11.43,0,0,1-1.86-.55c-.31-.18-.68-.31-.83-.42a4.09,4.09,0,0,0-.55-.28l-.51-.19c0-.18,0-.34,0-.47-.18-2.19-.23-3.23-.23-4.48a33.38,33.38,0,0,0-.29-3.5c0-.17,0-.43-.06-.75a3.28,3.28,0,0,1,.66-.06,3.26,3.26,0,0,0,.89-.05c.21-.08.42-.18.42-.18a1.64,1.64,0,0,1,.26,0,.39.39,0,0,0,.28,0c.16-.08.21-.16.37-.18a12.63,12.63,0,0,1,1.3-.13,2.36,2.36,0,0,0,.92-.21,7.2,7.2,0,0,1,.73-.37c.13,0,.73-.1,1-.15a5.71,5.71,0,0,0,.73-.19,1.51,1.51,0,0,1,.34-.13c.15,0,1.35-.08,1.75-.13s.73-.13.93-.15a2.69,2.69,0,0,0,.94-.5,3.79,3.79,0,0,1,1.57-.39,3.2,3.2,0,0,0,1.07-.29l.47-.29a.68.68,0,0,1,.49-.07,5.27,5.27,0,0,0,1.26-.19c.47-.1,1.38-.15,1.64-.26s1-.31,1.7-.49a8.42,8.42,0,0,0,2.27-.84,6.89,6.89,0,0,0,.83-.65s0-.08.16-.16a2.21,2.21,0,0,0,.94-1.25A2.48,2.48,0,0,0,269.07,30.71ZM236.65,59a2,2,0,0,1-.82,1.68,2.81,2.81,0,0,1-1.28.47,11,11,0,0,1-2.77-.26c-.62-.13-1.4-.26-2.06-.44a15.29,15.29,0,0,1-1.93-.86c-.68-.32-1.51-.58-2.06-.81s-1.15-.55-1.67-.79a10.1,10.1,0,0,1-1.35-1A4.43,4.43,0,0,1,221,55.57c-.79-1.22.23-1.35,1.25-1.43a38.4,38.4,0,0,1,4.67.28,37.28,37.28,0,0,1,4.41.87,36.74,36.74,0,0,1,4.44,1.38C236.48,57,236.72,58,236.65,59Z"/><path class="cls-1" d="M326.6,53.54a13.25,13.25,0,0,0-.33-2.8c-.09-.51-.51-1.82-.68-2.5a7.64,7.64,0,0,0-.51-1.25,1.41,1.41,0,0,0-.09-.27c-.12-.3,0,0-.12-.3l-.21-.68c0-.09-.56-1.16-.77-1.58a9.47,9.47,0,0,0-1.37-1.93A25.6,25.6,0,0,1,321,40.14a3.87,3.87,0,0,0-.86-.65,4.54,4.54,0,0,0-.42-.27,3.14,3.14,0,0,1-.5-.3,5.65,5.65,0,0,0-.72-.38c-.12-.06-2.17-1.1-3.27-1.58a26.87,26.87,0,0,0-4.67-1.64,34.84,34.84,0,0,0-5.42-.53,21.21,21.21,0,0,0-4.44.5c-1.31.36-1.66.51-2.08.6a2.56,2.56,0,0,1-.89-.15l.36-.33c1.22-1.13,2.61-2.23,2.79-2.53a5.11,5.11,0,0,0,.27-.65c.06-.09-.15.06.06-.09l.21-.15s.12,0,.33-.12,0,.09.2-.15l.21-.24.27-.09.3-.23a3.81,3.81,0,0,0,.3-.36c.08-.09.08-.21.17-.3l.09-.09s.3-.24.63-.47a6.33,6.33,0,0,0,.89-.63l.18-.21.36-.24.35-.23.18-.21.48-.39a2.25,2.25,0,0,0,.21-.24,1.08,1.08,0,0,1,.21-.3,12,12,0,0,0,1.16-.95l0-.09a1.71,1.71,0,0,1,.26-.32c.09-.06.3-.09.39-.18l.09-.09a4.11,4.11,0,0,1,.42-.24,5.57,5.57,0,0,0,.59-.51l.24-.12.24-.17a5.07,5.07,0,0,0,.44-.63c.09-.18-.17.09.09-.18l.27-.27.48-.35.3-.21a1.47,1.47,0,0,1,.29-.12s.21-.09.24-.18l0-.09.3-.15.21-.26.32-.09a.29.29,0,0,0,.24,0,.4.4,0,0,0,.18-.27c0-.09,0-.18.06-.3s.42-.36.45-.45-.21.12,0-.08.59-.45.59-.45l.09-.33.33,0,.27,0,.21-.33.17-.41.3-.09.48-.06.21-.12s.11-.45.33-.55h0a.23.23,0,0,1,.31.08l.57-.06.32-.06a.39.39,0,0,1,.17-.39h0a.56.56,0,0,0,.22-.14,2.63,2.63,0,0,0,.6-1c0-.3-.09-.48,0-.66a2.69,2.69,0,0,0,.35-1.25,5,5,0,0,0-.29-1.28,2.77,2.77,0,0,0-.15-.24c-.18-.26-.48-1.16-.66-1.39s-.21-.39-.3-.48l-.38-.42-.18-.27-.24-.26s-.8-.84-1-1-.72-.81-.92-1a6.12,6.12,0,0,0-.81-.38l-.12-.06a2,2,0,0,0-.8-.51c-.36-.06-.68-.06-.8-.09a1.41,1.41,0,0,1-.54-.09,7.56,7.56,0,0,0-.77-.3,3.06,3.06,0,0,0-1.22-.14,7.37,7.37,0,0,0-.75.17,3.21,3.21,0,0,0-.92.3,4.7,4.7,0,0,0-.77.42c-.15.15-.36.33-.36.33a1.73,1.73,0,0,1-.63,0,1,1,0,0,0-.71.11,3.8,3.8,0,0,0-.39.33,2.17,2.17,0,0,0-.27.42,5.92,5.92,0,0,0-1.07.27,16.34,16.34,0,0,0-1.6.59c-.24.18-.66.42-.66.42l-.48.21a7.72,7.72,0,0,1-1,.12c-.18,0-.27.14-.41.29l-.15.15s-.57.21-.87.3a10.36,10.36,0,0,0-1.16.33c-.32.15-1.57.56-2,.77s-.63.39-.72.42-.68.15-1,.24-.53.17-.62.2l-.54.18-.36.18-1,.18a2.75,2.75,0,0,0-.77.36s-.83.23-1.19.38-1.25.39-1.76.54-1.9.54-2.44.77-2.14.54-2.41.69a8.43,8.43,0,0,1-1.46.33c-.12,0-1,.11-1.28.11s-1,0-1.25.24a4.38,4.38,0,0,0-.38.75c-.09.12-.39.26-.42.44a.79.79,0,0,0,.15.54,4,4,0,0,1,.38.62,3.85,3.85,0,0,0,.66.93,3.94,3.94,0,0,0,.83.68,6.32,6.32,0,0,1,.66.42,1.74,1.74,0,0,0,.59.32l.12,0a3.55,3.55,0,0,0,.63.54c.29.18.62.48.89.68s.6.51.6.51a.66.66,0,0,1,.26.06c.12.06.3.12.39.18s.33.27.42.33a2.28,2.28,0,0,0,.35.17c.12.06.54.36.81.54a6.3,6.3,0,0,0,1.57.66c.6.14,1,.29,1.11.32a4.06,4.06,0,0,0,.56.09,2.17,2.17,0,0,1,.72-.06c.32.06.5.15.65.15l.48,0a1.67,1.67,0,0,1,.53.06,1,1,0,0,1-.56.51,1,1,0,0,0-.75.35c-.38.39-.53.54-.53.66a4.25,4.25,0,0,1-.12.56l-1.43,1.52c-.42.45-1,.87-1.49,1.34s-.8,1.07-1,1.22a19.53,19.53,0,0,0-1.49,1.4c-.3.36-.33.8-.53,1.07s-.9.48-1.2.81-.8.86-.95,1a4.16,4.16,0,0,0-.41.62,3.31,3.31,0,0,0-1,.78c-.2.35-.32.62-.32.62a4.68,4.68,0,0,1-.39.39,3.17,3.17,0,0,0-.71.47c-.27.27-.18.06-.27.27a2.31,2.31,0,0,1-.57.66c-.21.18-.33.26-.36.44s-.14.57-.14.57a1,1,0,0,1-.39.06,2.33,2.33,0,0,0-.39,0l-.15.45a3.83,3.83,0,0,1-.56.65c-.21.15-.42.48-.57.48s-.44,0-.44,0l-.12.35-.09.27-.21.33a4.25,4.25,0,0,0-.12.56,1.16,1.16,0,0,0,.09.33l.18.21-.09.27,0,.09.12.23a1.14,1.14,0,0,1,.15.51,1.16,1.16,0,0,0,.06.57l.06.12a6.3,6.3,0,0,0,.06.95c0,.21.2.44.23.56s.15.9.15.9l.12.2s.3.12.33.27.12.89.12,1.1a2.6,2.6,0,0,1,0,.54l0,.09a1.89,1.89,0,0,0,.33.24l.08,0,.3.12c.21.08.6.23.66.35a.77.77,0,0,0,.44.27,1.55,1.55,0,0,0,.33-.06h0l0,0c.09,0,.17-.13.27-.18l.12-.09c.22-.09.71-.39,1.07-.53s.68-.27.71-.42.15-.51.15-.51.54-.29.81-.41a2.55,2.55,0,0,0,.83-.51.88.88,0,0,1,.53-.36,6.23,6.23,0,0,0,1.14-.44c.23-.12.8-.45,1.07-.57a4.44,4.44,0,0,1,.77-.32l1.1-.33c.33-.09.6-.27.92-.39a6.61,6.61,0,0,0,1.2-.5,4.8,4.8,0,0,1,1.66-.63,7.65,7.65,0,0,0,1.82-.51l1.22-.53a5.69,5.69,0,0,0,.59-.15s.63-.12.93-.21A11.19,11.19,0,0,1,297,45a10.72,10.72,0,0,0,1.94-.24,13.67,13.67,0,0,1,2.2-.42c.63-.09,2.59-.27,3.42-.3A23.08,23.08,0,0,1,307,44a13,13,0,0,1,2.32.27c.75.24,1.67.48,2.15.69a12,12,0,0,1,1.66,1,20.56,20.56,0,0,1,1.7,1.49,15.62,15.62,0,0,1,1.55,2.11,5.67,5.67,0,0,1,.86,1.43,7.33,7.33,0,0,1,.36,1.87,7.71,7.71,0,0,1-.3,1.49,12.26,12.26,0,0,1-.68,2.23c-.27.45-.42,1.31-.87,1.76s-.83,1-1,1.22-.41.21-.47.3-.24.32-.24.32a3.06,3.06,0,0,0-.57,0,.63.63,0,0,0-.56.33c-.09.18-.09.36-.33.48a4.4,4.4,0,0,1-1.25.24c-.27,0,.06-.24-.27,0a4.66,4.66,0,0,1-.74.47,2.17,2.17,0,0,1-.84.15,1.27,1.27,0,0,1-.53-.24,7.36,7.36,0,0,1-.81-1.13c-.14-.27-1.28-1.49-1.78-2.08a18,18,0,0,0-2.53-2.47c-.77-.54-2.14-1.64-2.86-2s-2.35-1.48-3.54-2-1.82-.86-2.35-1a4.63,4.63,0,0,0-1.79-.15,6.85,6.85,0,0,0-1.9.63c-.39.23-3.07,1.39-3.63,1.78s-2.89,2.32-3.4,2.65-1.22.62-1.36.95-.66.84-.72,1.31a8.5,8.5,0,0,0,0,1.94,3.27,3.27,0,0,0,.3.74,10.2,10.2,0,0,1,.59,1.16,2.45,2.45,0,0,0,.3.57.75.75,0,0,1,.15.21l0,.08c0-.08.24.27.33.3l.09,0,.23.33.12.21.3.15L285,64l.36.18a4.88,4.88,0,0,0,.74.93,6.88,6.88,0,0,0,.77.53c.12.06.57.48.72.6a4.32,4.32,0,0,0,.53.38c.09,0-.2-.18.09,0a2.15,2.15,0,0,0,.78.3c.21.06.71.45,1.13.63a7.91,7.91,0,0,1,1.1.59c.3.18.54.18.65.33s-.11-.09.12.15a1.06,1.06,0,0,0,.45.29l.24.09a2,2,0,0,1,.47.12,4.78,4.78,0,0,0,.63.45,1.62,1.62,0,0,1,.39.21,1.28,1.28,0,0,0,.32.09c.09,0,.45.09.45.09l.27.06a3.89,3.89,0,0,1,.59.23,2.74,2.74,0,0,0,.78.36c.35.09.86.15,1,.21a6.08,6.08,0,0,0,.77.39c.21.06,1,.2,1.13.23a26.87,26.87,0,0,0,3.25.57c1.1.06,2.62.27,3.27.27a29.9,29.9,0,0,0,3.16-.21c.77-.12,2-.39,2.71-.57s1.54-.44,1.72-.47a5.29,5.29,0,0,0,1.22-.36,7,7,0,0,0,.95-.56,4.38,4.38,0,0,1,.93-.48,5.6,5.6,0,0,0,1-.42,3.17,3.17,0,0,1,.86-.27,3,3,0,0,0,.92-.44,3.11,3.11,0,0,1,.78-.51,1.52,1.52,0,0,0,.68-.41c.15-.18-.06,0,.15-.18s.78-.57.95-.78.63-.56.72-.77.21-.54.21-.54a1.4,1.4,0,0,0,.56-.44c.12-.24,1-1.67,1.37-2.41a18,18,0,0,0,1-2.56,21.28,21.28,0,0,0,.57-2.65A25.69,25.69,0,0,0,326.6,53.54Zm-28.22,9.7H298l-.54,0a1,1,0,0,1-.6-.3c-.17-.18-.26-.09-.59-.15s-.66-.09-.89-.15-.87-.11-1.05-.14a1.29,1.29,0,0,1-.47-.27,1.27,1.27,0,0,0-.51-.15,1,1,0,0,1-.5-.33c-.15-.15-.63-.18-1-.39a3.33,3.33,0,0,1-1.31-.74c-.3-.39-.75-.77-.93-1a1.15,1.15,0,0,1-.21-1c.12-.36.18-.87.3-.93s.36-.11.69-.23,1-.51,1.19-.6a1.26,1.26,0,0,1,.92.09,5.14,5.14,0,0,1,.68.48l.78.5c.18.12.86.75,1.25,1.07a8.57,8.57,0,0,1,1.25,1.22,13.62,13.62,0,0,0,1.07,1.19c.15.18.62.69.74.84a2,2,0,0,1,.39.62C298.62,63,298.38,63.24,298.38,63.24Z"/><path class="cls-1" d="M387,58l0-.39V57.4l-.06-.3,0-.11a1,1,0,0,0-.21-.33l-.3-.42a1,1,0,0,1-.24-.56c0-.24-.21-.36-.27-.45a1.65,1.65,0,0,1-.23-.33,1.34,1.34,0,0,0-.36-.44c-.15-.12-.48-.51-.66-.63a3.32,3.32,0,0,1-.5-.62,2,2,0,0,0-.51-.45,9.24,9.24,0,0,0-.8-.54,5.94,5.94,0,0,1-.63-.32,2.43,2.43,0,0,1-.47-.33,3.27,3.27,0,0,1-.18-.33c-.06-.12-.3-.06-.57-.15a3.1,3.1,0,0,0-.92-.27,1.94,1.94,0,0,1-.95-.44,3.54,3.54,0,0,1-.39-.18,1.72,1.72,0,0,0-.42-.12.61.61,0,0,1-.2-.09l-.21-.15s-.24-.09-.48-.15a2.29,2.29,0,0,1-.56-.32,3.39,3.39,0,0,0-.45-.12,2,2,0,0,1-.33-.12c-.09-.06-.39-.18-.3-.15l-.09,0a2.63,2.63,0,0,1-.53-.12,1.62,1.62,0,0,0-.3-.09l-.21-.06c-.21-.06,0,0-.29-.21a1.43,1.43,0,0,0-.33-.18,3.9,3.9,0,0,1-1-.2,1.39,1.39,0,0,0-.42-.15l-.39-.18a.52.52,0,0,0-.21-.06l-.35-.09-.51,0h-.21c-.21,0-.27-.06-.27-.06l-.41-.15a4.63,4.63,0,0,1-.51-.15c-.21-.09,0,0-.21-.06s0,0-.15,0-.2,0-.5,0a1.06,1.06,0,0,1-.21,0l-.27,0c-.27,0,0,0-.09,0s-.23,0-.47-.08,0,0-.09,0l-.21-.06a2.64,2.64,0,0,1-.42,0,3.14,3.14,0,0,0-.53,0l-1,0a1.59,1.59,0,0,1-.87-.3,1.93,1.93,0,0,0-.35-.2h0s-.12-1.64-.24-2.2a19.07,19.07,0,0,1-.27-2.62c0-.6-.12-2.38-.15-3s-.12-1.54-.12-1.75a2,2,0,0,0,0-.48,2,2,0,0,1-.06-.45c0-.11.12.12,0-.11a1,1,0,0,1-.15-.48.81.81,0,0,1,0-.39l.07-.23h0l.32.14c.95.42,1.9,1,2.74,1.28s1.46.54,1.69.6a7,7,0,0,1,1.11.38c.26.15.59.45.77.54a3.64,3.64,0,0,0,.59.15c.21.06.45.15.45.15s.36,0,.48.06.18.24.35.27l.69.08.36.09s.09.21.2.21h.36l.45,0a3,3,0,0,1,.8.15,12.9,12.9,0,0,0,2,.27,6.27,6.27,0,0,0,1.93-.09,8,8,0,0,0,1.28-.57,5.11,5.11,0,0,0,1.43-.5,3.17,3.17,0,0,0,.83-.78c.21-.23.27-.83.39-1.1a2.11,2.11,0,0,0,.39-1.25,3.41,3.41,0,0,0-.42-1.54c-.12-.27-.12-.6-.27-.72l-.15-.12a3.19,3.19,0,0,1-.38-.41,1.5,1.5,0,0,0-.3-.57,1,1,0,0,1-.3-.33,5,5,0,0,1-.3-.71,4.28,4.28,0,0,0-.24-.66c-.08-.15.15,0-.08-.15a6.4,6.4,0,0,1-1-.92c-.23-.3-.44-.53-.83-.5s-1.4.06-2.2.09-3.9-.12-5-.24a43.69,43.69,0,0,1-4.53-.66,20.92,20.92,0,0,1-2.88-.74c-.12-.06-.26-.15-.41-.24l0-.39.06-.74a1.06,1.06,0,0,1,0-.21c0-.09,0-.21,0-.3s.06-.12.06-.29a4.14,4.14,0,0,0,0-.42l0-.27,0-.36,0-.23,0-.27s.06-.36.09-.75c.09-1.19.33-3.57.36-4.91a6.47,6.47,0,0,0-.18-2.26l-.12-.27s-.12-.38-.15-.53.24,0,0-.15-.09.21-.27-.15a2.91,2.91,0,0,1-.24-.77l-.29-.27a3.11,3.11,0,0,1-.36-.21,1.74,1.74,0,0,1-.27-.3l-.06-.41L362,11.6l-.23-.18s-.3,0-.39-.09-.3-.21-.33-.3a3.76,3.76,0,0,0-.24-.41,2.44,2.44,0,0,1-.74-.33c-.27-.21-.57-.36-.69-.48a.87.87,0,0,0-.5-.27.67.67,0,0,0-.51.06l-.09.09L358,10s-.18.15-.3.12a1.33,1.33,0,0,0-.6,0c-.15.06-.35.12-.38.27s-.09.35-.09.35a1.59,1.59,0,0,1-.51.45,1.72,1.72,0,0,0-.65.42,1.52,1.52,0,0,0-.12.53,2,2,0,0,1,0,.75c-.09.24-.33.44-.42.77a2.07,2.07,0,0,0-.09.69c0,.23,0,.47,0,.65a2.82,2.82,0,0,1-.12.8c-.09.27-.12.81-.21,1.11s-.06,1.16-.15,1.42a5.35,5.35,0,0,0-.12.66c0,.09-.05.36-.05.36a11.79,11.79,0,0,1-.24,1.25,4.36,4.36,0,0,0,0,.83,1.63,1.63,0,0,0-.06.33v.41l.06.3s0,.77-.06,1.34-.09,1.67-.12,2.08a1.82,1.82,0,0,1-.18.69c0,.09,0,.24,0,.33h0V27a4,4,0,0,1-.06.6s-.15.12-.15.21v.09l0,.41.15.21s0,.57,0,1a1.82,1.82,0,0,1-.09.74,1.07,1.07,0,0,0-.12.33c0,.12,0-.15,0,.12l0,.26.15.27a1.82,1.82,0,0,1,.12.51c0,.09-.15.21-.15.29s0-.11,0,.09l0,.21a3.18,3.18,0,0,1,.18.66c0,.18.06.32.06.41a2.37,2.37,0,0,1-.09.39l0,.12a4.37,4.37,0,0,0-.12.51,1.5,1.5,0,0,1,0,.35l0,.12v.27a4.78,4.78,0,0,1,.06.51.86.86,0,0,0,0,.38,3.05,3.05,0,0,1,.15.54,5,5,0,0,1,0,1,5.38,5.38,0,0,0-.06.95c0,.18.06.63.06.9a1.32,1.32,0,0,0,.09.47l.09.3s.21.74.21.83,0,.81,0,1.07a5,5,0,0,0,.06.81v.33c0,.09,0,.32,0,.32s0,.21,0,.3v.73c-.34,0-.64,0-.81-.07-.5-.09-3,0-3.48,0s-1.31.09-1.43.09h-.59c-.12,0-1.05.14-1.05.14l-.32,0-.24.06c-.12,0-.27.12-.36.15l-.09,0-.35.15h-1.2a1.67,1.67,0,0,0-.38,0l-.36.09-.27.06-.24.09-.65.24s-1.19.35-1.31.41l-.62.27-.27.12-.24.12a4,4,0,0,0-.54.15l-.12.06-.29.24a7,7,0,0,0-1.31.77c-.42.36-.66.63-.78.74s0-.11-.12.12-.17.36-.23.45.12-.12-.06.09l-.18.21a1.62,1.62,0,0,0-.42.56c-.06.24-.15.72-.18.87s-.32,1.28-.32,1.48.06.45.06.57v.12a5.73,5.73,0,0,1,0,.62,1.23,1.23,0,0,0,0,.33v.09a2.6,2.6,0,0,0,.05.45,3.06,3.06,0,0,0,.18,1.22,1.25,1.25,0,0,1,.36.59c0,.18.27.42.33.6a1.78,1.78,0,0,0,.21.5,4.59,4.59,0,0,1,.26.48l.09.21.18.24.3.41a1.77,1.77,0,0,0,.39.45c.2.15.41.21.47.3l.21.35c.06.09-.12-.14.06.09l.18.24s.27.06.33.21a2.71,2.71,0,0,0,.59.74,10.73,10.73,0,0,1,.84.78,5.09,5.09,0,0,0,.56.5,2.1,2.1,0,0,0,.3.24l.09.06s.24.21.33.27l.08.06.42.21a2.4,2.4,0,0,0,.72.8c.38.21.65.39.65.39l.33.18.44.38a.33.33,0,0,0,.15.21c.12.06.39.15.63.24a8,8,0,0,1,.86.45,2.78,2.78,0,0,1,.57.35c.09.09-.12-.06.09.09a2,2,0,0,0,.41.24l.12.06s.3.27.39.33a.73.73,0,0,0,.3.18c.14,0-.12-.12.14,0a2.38,2.38,0,0,1,.27.14l.6.36.24.09c.17.06,0,0,.17.06s-.06-.09.21.09,0,.09.27.18.42.12.54.18l.35.18a4.08,4.08,0,0,0,.75.2s.3.12.41.18.27.09.39.15l.54.24a5.56,5.56,0,0,0,.65.15,6.91,6.91,0,0,1,.84.18,2.6,2.6,0,0,1,.5.2c.15.09.54.18.72.27s.86.3,1.13.42a2.89,2.89,0,0,0,.65.18c.24.06.69.12.89.15a13.44,13.44,0,0,0,2.68.23,11.4,11.4,0,0,0,3-.5,8.21,8.21,0,0,0,1.9-1,12.57,12.57,0,0,0,1.76-2,5.32,5.32,0,0,0,.83-2.77c0-.95,0-1.72,0-2v-.56c0-.12-.06-.3-.06-.45a5.87,5.87,0,0,0-.15-1c-.06-.15-.23-.51-.23-.51l-.15-.77-.09-.3-.06-.21.3-.06.5.09a4.88,4.88,0,0,1,.57.24l.33.3.8.38.39.12.23.12a4.73,4.73,0,0,1,.48.21,2.82,2.82,0,0,0,.45.18c.09,0,.86.15.86.15l.09.06a.81.81,0,0,0,.24.09,1.52,1.52,0,0,0,.35.12,4.48,4.48,0,0,1,.63.26l.24.18.24.09.14.12.45.33.3,0,.41.15.18,0,.48.08.21.33.21.09.35.15.24.21.45.15.38.18.21.12.24.2.27.18.27.21a5.69,5.69,0,0,0,.65.36.92.92,0,0,1,.27.15l.09.2.21.09.24.09.23.12.39.12a1.91,1.91,0,0,1,.18.3c0,.09.36.09.59.09h.72a1.64,1.64,0,0,0,.36-.12l.38-.24.36-.27h.42l0-.44,0-.09c0-.09.23-.15.23-.15a1.53,1.53,0,0,1,.12-.33,2.25,2.25,0,0,1,.21-.24l.24-.35c.09-.15.33-.33.51-.57l.17-.24.21-.21.09-.44,0-.09a1.67,1.67,0,0,1,.12-.24l.27-.33.21-.32v-.39l.06-.45s.12-.24.18-.33a2.77,2.77,0,0,0,0-.62l.11-.21v-.09a1.62,1.62,0,0,1,0-.24Zm-27,1.86a2.7,2.7,0,0,1-.87,1.11c-.16.12-.76.44-.92.52s-.79.36-.79.36l-.48.14a4.77,4.77,0,0,1-1.07,0h-.32l-.3-.09-.3-.12-.24-.09c-.24-.09,0,0-.24-.06s0,0-.14,0a.36.36,0,0,0-.21,0l-.42-.18-.24-.15-.27-.15c-.26-.15,0,0-.09,0l-.53-.24c-.21-.08-.6-.32-.77-.38a4.2,4.2,0,0,1-.9-.45,4,4,0,0,0-.62-.39c-.12-.06-.6-.41-.78-.53s-.8-.48-1.1-.69a3.8,3.8,0,0,1-.86-.68,1.54,1.54,0,0,0-.63-.42,6.35,6.35,0,0,1-.83-.56c-.3-.24-.68-.63-.92-.84a7.27,7.27,0,0,1-.84-.92,5.07,5.07,0,0,0-.47-.56.63.63,0,0,1-.12-.69l.3-.15.32-.15.18-.06.57-.17.3-.09a1.05,1.05,0,0,1,.35-.06,1.46,1.46,0,0,1,.42.12l.3,0h.8a1.5,1.5,0,0,1,.33,0l.47.11c.12,0,.21,0,.42,0a2.25,2.25,0,0,0,.48-.08,3.78,3.78,0,0,1,.59,0l.36.11a6.37,6.37,0,0,0,.8,0l.24.15c.24.15,0,0,.12.09a.68.68,0,0,0,.45.15c.21,0,.92.12,1.1.15a4.91,4.91,0,0,1,.71.18.87.87,0,0,0,.48,0,3,3,0,0,1,.77.15,4.43,4.43,0,0,1,1,.06l.53.24.27.14c.83-.11,2.62,1.07,2.82,1.34a3,3,0,0,1,.47.8,8.47,8.47,0,0,1,.6,1.35A3.9,3.9,0,0,1,360,59.89Z"/></g></g></svg>